<?xml version="1.0" standalone="no"?>
<!DOCTYPE svg PUBLIC "-//W3C//DTD SVG 20010904//EN"
 "http://www.w3.org/TR/2001/REC-SVG-20010904/DTD/svg10.dtd">
<svg version="1.0" xmlns="http://www.w3.org/2000/svg"
 width="1200.000000pt" height="953.000000pt" viewBox="0 0 1200.000000 953.000000"
 preserveAspectRatio="xMidYMid meet">

<g transform="translate(0.000000,953.000000) scale(0.100000,-0.100000)"
fill="#000000" stroke="none">
<path d="M5931 9434 c-9 -11 -24 -14 -46 -11 -37 6 -67 -6 -40 -17 14 -5 15
-9 5 -21 -7 -8 -21 -15 -31 -15 -10 0 -22 -6 -26 -14 -12 -21 -53 -31 -53 -12
0 20 -19 31 -33 17 -14 -14 -57 -14 -57 0 0 6 6 9 13 6 8 -3 12 6 13 24 1 25
-3 29 -25 29 -15 0 -32 -5 -37 -10 -6 -6 -24 -12 -41 -13 -17 -1 -28 -6 -25
-11 3 -5 5 -23 5 -40 -1 -66 -2 -68 -25 -60 -12 3 -34 8 -48 9 -15 1 -32 5
-38 9 -7 4 -16 4 -22 1 -5 -3 -10 0 -10 9 0 12 -8 10 -42 -8 -24 -12 -62 -28
-85 -34 -24 -7 -42 -16 -42 -20 7 -45 0 -52 -55 -52 -30 0 -56 -5 -58 -11 -2
-6 -14 -5 -33 5 -27 15 -31 14 -42 0 -11 -15 -16 -15 -57 -1 -34 12 -44 12
-40 2 3 -7 -10 -19 -35 -29 -23 -9 -41 -23 -41 -31 0 -9 -9 -15 -22 -16 -65
-1 -114 -13 -126 -30 -14 -21 -76 -27 -87 -9 -13 22 -35 10 -35 -19 0 -26 -4
-30 -40 -36 -34 -6 -40 -10 -38 -28 2 -14 -2 -22 -12 -22 -8 0 -15 9 -15 20 0
14 -6 19 -20 17 -11 -1 -44 -5 -74 -7 -30 -3 -61 -11 -69 -18 -8 -6 -25 -10
-38 -9 -13 2 -24 -1 -24 -7 0 -6 6 -11 13 -11 8 0 7 -3 -3 -9 -8 -6 -19 -7
-25 -3 -5 3 -4 -1 3 -10 11 -13 6 -16 -39 -21 -28 -4 -57 -11 -64 -17 -7 -6
-23 -13 -36 -15 -12 -3 -27 -9 -32 -14 -5 -5 -27 -6 -48 -4 -29 4 -45 1 -58
-11 -11 -10 -33 -25 -50 -34 -17 -9 -39 -33 -50 -52 -10 -20 -37 -45 -63 -60
-62 -35 -105 -84 -104 -117 2 -42 -16 -53 -83 -53 -48 0 -61 3 -61 15 0 11
-11 15 -40 15 -43 0 -50 -12 -26 -43 11 -14 11 -26 3 -53 -8 -26 -8 -37 0 -42
16 -10 21 -74 6 -79 -7 -3 -13 0 -13 5 0 18 -31 42 -54 42 -16 0 -26 -9 -36
-35 -8 -19 -18 -35 -22 -35 -5 0 -7 4 -3 9 3 5 0 13 -6 17 -9 5 -10 -4 -6 -34
4 -24 3 -43 -3 -47 -5 -3 -10 -19 -10 -34 0 -26 -16 -51 -32 -51 -4 0 -8 7 -8
15 0 20 -16 19 -24 -1 -9 -23 -8 -24 13 -24 13 0 19 -7 19 -25 0 -14 -5 -25
-10 -25 -6 0 -8 -9 -5 -20 4 -16 0 -20 -20 -20 -20 0 -23 4 -18 20 5 14 2 20
-9 20 -16 0 -23 -49 -9 -63 3 -4 8 -19 9 -33 3 -29 -31 -65 -53 -57 -8 3 -13
-3 -13 -18 -1 -23 -1 -23 -15 -6 -7 11 -11 25 -9 32 7 17 -16 24 -43 14 -20
-7 -23 -16 -24 -61 0 -29 -3 -48 -5 -42 -4 9 -11 9 -29 0 -25 -11 -45 -44 -45
-74 -1 -9 -12 -30 -25 -46 -18 -23 -21 -34 -14 -48 6 -10 8 -22 5 -27 -3 -5 1
-14 9 -21 14 -11 14 -15 0 -36 -22 -34 -19 -63 10 -90 26 -24 34 -77 14 -90
-6 -3 -10 -32 -9 -68 4 -104 4 -104 -35 -112 -40 -7 -42 -11 -17 -30 10 -8 12
-13 5 -14 -7 0 -13 -5 -13 -11 0 -21 -53 -80 -63 -70 -5 5 -16 7 -23 4 -8 -3
-26 -2 -40 1 l-27 7 21 22 20 22 -24 20 c-15 13 -24 31 -24 50 l0 29 -16 -23
c-15 -20 -17 -36 -14 -95 1 -10 -5 -26 -13 -35 -26 -30 -29 -69 -7 -91 11 -11
18 -26 14 -32 -5 -7 0 -9 14 -6 12 4 25 2 28 -3 3 -5 0 -9 -5 -9 -6 0 -11 -7
-11 -15 0 -8 -7 -15 -16 -15 -11 0 -14 -5 -10 -16 3 -9 6 -22 6 -30 0 -9 5
-12 11 -8 8 5 10 -2 6 -21 -6 -35 1 -55 19 -55 8 0 17 -7 20 -15 4 -8 13 -15
22 -15 8 0 12 -3 9 -6 -10 -10 13 -46 26 -41 18 6 45 -24 40 -44 -3 -11 1 -27
8 -36 10 -11 14 -44 14 -101 0 -59 4 -87 13 -89 18 -7 15 -30 -8 -53 -19 -19
-20 -23 -6 -75 8 -30 12 -55 9 -55 -4 0 0 -8 9 -17 25 -31 3 -112 -32 -114
-11 -1 -33 -2 -49 -3 -44 -2 -49 -15 -17 -41 24 -19 27 -25 17 -44 -7 -11 -18
-21 -26 -21 -18 0 -47 -29 -40 -41 4 -5 1 -9 -4 -9 -6 0 -11 -9 -11 -21 0 -15
5 -19 15 -15 19 7 47 -3 40 -15 -8 -11 34 -110 56 -131 9 -9 19 -32 23 -50 4
-21 17 -43 35 -56 21 -15 27 -27 24 -45 -4 -20 0 -26 20 -31 15 -3 28 -16 32
-29 12 -44 30 -69 58 -84 16 -8 27 -17 24 -20 -10 -10 28 -43 50 -43 12 0 32
-4 45 -9 13 -5 32 -12 43 -16 16 -5 17 -8 5 -16 -11 -7 -6 -9 16 -4 22 4 36 1
48 -10 17 -17 13 -35 -7 -35 -7 0 -12 -11 -12 -23 0 -18 5 -23 18 -19 9 2 17
-1 17 -7 0 -6 -4 -11 -10 -11 -5 0 -10 -7 -10 -15 0 -10 10 -15 30 -15 24 0
30 -4 30 -22 0 -13 6 -39 13 -58 9 -27 17 -34 33 -32 13 2 25 -6 34 -23 16
-31 30 -32 30 -3 0 20 1 20 18 5 10 -10 31 -17 46 -17 19 0 29 -6 33 -20 3
-11 9 -20 14 -20 5 0 9 -6 9 -14 0 -8 8 -21 19 -28 10 -7 22 -28 25 -46 5 -18
14 -32 22 -32 25 0 74 -30 74 -45 0 -8 6 -12 14 -9 8 3 24 -4 35 -15 12 -12
27 -18 37 -14 10 4 15 1 13 -8 -2 -8 2 -23 8 -34 6 -11 14 -46 18 -78 7 -52
25 -91 25 -53 0 18 16 21 25 5 4 -5 18 -14 32 -20 13 -5 23 -15 20 -22 -4 -14
-69 -16 -79 -2 -17 24 -14 -7 9 -90 20 -71 36 -102 72 -147 25 -31 56 -63 69
-69 12 -7 33 -30 44 -51 12 -21 25 -38 30 -38 11 0 10 -38 -2 -45 -6 -4 -4
-17 5 -36 9 -16 13 -34 10 -39 -3 -5 -2 -17 3 -27 40 -78 45 -112 19 -134
l-22 -18 30 -55 c16 -31 33 -56 37 -56 4 0 8 -10 8 -23 0 -13 9 -33 20 -45 11
-12 20 -29 20 -39 0 -11 9 -36 20 -58 11 -22 18 -47 14 -57 -3 -9 2 -31 10
-47 9 -17 16 -39 16 -51 0 -13 7 -20 20 -20 13 0 20 -7 20 -20 0 -10 6 -23 14
-27 13 -7 106 -145 106 -157 0 -3 13 -24 29 -48 49 -73 52 -92 58 -374 3 -132
1 -229 -4 -239 -6 -9 -32 -25 -59 -34 -79 -27 -148 -78 -182 -135 -31 -54 -78
-171 -109 -271 l-18 -59 -110 -67 c-79 -48 -123 -82 -157 -122 -74 -89 -110
-117 -185 -147 -39 -15 -86 -39 -105 -53 -25 -19 -61 -32 -123 -43 l-88 -17
-66 -67 c-56 -57 -131 -112 -131 -96 0 3 -16 -2 -35 -10 -19 -7 -46 -14 -60
-14 -14 0 -44 -9 -68 -19 -75 -35 -161 -69 -212 -84 -27 -8 -63 -21 -80 -28
-16 -7 -37 -14 -45 -15 -8 -1 -36 -9 -63 -18 -26 -9 -52 -14 -57 -11 -5 3 -11
1 -15 -5 -3 -5 -14 -10 -23 -10 -10 0 -33 -8 -52 -18 -19 -11 -62 -27 -95 -37
-33 -10 -64 -22 -70 -27 -5 -4 -21 -8 -36 -8 -15 0 -31 -5 -34 -10 -3 -6 -17
-10 -30 -10 -13 0 -50 -7 -82 -16 -32 -9 -74 -20 -93 -24 -45 -11 -134 -43
-140 -51 -3 -4 -34 -10 -70 -14 -36 -4 -69 -11 -75 -15 -5 -4 -34 -13 -62 -21
-29 -7 -53 -16 -53 -21 0 -4 -11 -8 -24 -8 -14 0 -28 -4 -31 -10 -7 -12 -92
-50 -111 -50 -8 0 -14 -4 -14 -10 0 -5 -7 -10 -15 -10 -14 0 -63 -26 -75 -40
-3 -4 -32 -24 -65 -45 -33 -21 -64 -43 -70 -49 -18 -20 -113 -96 -119 -96 -6
0 -51 -37 -88 -73 -10 -9 -22 -17 -27 -17 -14 0 -51 -87 -51 -119 0 -28 -7
-46 -43 -116 -92 -180 -142 -283 -143 -295 0 -8 -10 -33 -21 -55 -12 -22 -28
-57 -36 -78 l-16 -37 5630 0 5629 0 0 1185 c-1 723 -5 1187 -10 1190 -6 4 -5
14 2 25 11 16 9 22 -7 34 -17 13 -17 15 -4 16 13 0 17 12 18 56 1 56 1 56 -17
33 -14 -16 -24 -20 -38 -14 -36 15 -52 13 -46 -7 2 -11 -1 -18 -9 -18 -9 -1
-8 -4 4 -11 12 -7 27 -7 46 -1 26 9 28 8 23 -14 -4 -25 -26 -32 -37 -14 -5 8
-11 7 -21 -1 -11 -9 -14 -9 -14 1 0 8 -2 11 -5 9 -7 -8 7 -49 17 -49 6 0 8 7
4 15 -3 9 0 15 9 15 18 0 28 -17 14 -25 -5 -4 -8 -13 -5 -20 4 -10 -13 -25
-28 -25 -1 0 -8 16 -16 35 -8 19 -21 35 -29 35 -12 0 -12 -3 -3 -12 16 -16 15
-28 -3 -28 -22 0 -7 -27 18 -34 17 -5 19 -8 9 -15 -7 -4 -14 -14 -16 -22 -1
-8 -7 -23 -14 -34 l-11 -20 -2 20 c-1 11 -1 26 0 33 1 7 -5 20 -14 29 -9 9
-14 24 -12 35 3 10 1 15 -5 12 -6 -4 -8 -23 -4 -47 6 -37 5 -39 -16 -34 -21 5
-21 5 -5 -7 24 -18 21 -27 -7 -20 -22 5 -24 3 -22 -38 0 -23 -3 -43 -9 -43 -5
0 -16 -4 -23 -9 -21 -13 -29 4 -9 18 19 14 22 32 8 41 -14 8 -41 -23 -35 -40
5 -11 -2 -15 -25 -15 -21 0 -31 -5 -31 -15 0 -17 16 -20 25 -5 7 12 25 4 25
-11 0 -5 -12 -15 -26 -21 -21 -10 -27 -9 -35 3 -13 21 -11 33 12 58 22 23 20
37 -4 28 -8 -3 -18 -22 -21 -42 -7 -34 -9 -37 -36 -32 -25 5 -28 3 -34 -26 -6
-27 -9 -30 -19 -16 -7 8 -20 18 -31 22 -11 4 -16 13 -12 22 3 9 1 23 -4 33 -5
9 -17 35 -27 57 -17 37 -18 38 -22 15 -1 -14 -8 -28 -15 -32 -7 -5 -5 -8 7 -8
9 0 17 -3 18 -7 0 -5 3 -21 5 -36 4 -23 1 -30 -16 -34 -31 -8 -24 -18 16 -19
32 0 53 -15 54 -37 0 -5 -14 -6 -32 -3 -18 3 -38 1 -44 -5 -8 -6 -14 -5 -18 6
-3 8 -10 15 -17 15 -6 0 -9 -6 -6 -14 3 -8 0 -22 -8 -32 -11 -16 -15 -17 -30
-4 -10 8 -29 15 -43 15 -14 0 -27 6 -30 13 -2 7 4 11 15 10 37 -3 53 2 53 18
0 9 -6 14 -12 11 -7 -2 -21 0 -31 5 -14 7 -16 13 -8 22 6 7 8 27 5 44 l-6 32
-29 -21 c-16 -11 -29 -16 -29 -10 0 6 -5 11 -11 11 -5 0 -7 -5 -3 -11 3 -6 1
-15 -6 -19 -8 -5 -10 -15 -6 -26 6 -16 7 -16 22 2 15 18 15 18 9 -2 -3 -13 1
-26 9 -33 11 -9 12 -19 6 -37 -8 -19 -5 -29 10 -44 26 -26 27 -53 1 -45 -11 3
-25 -1 -35 -10 -10 -10 -24 -13 -40 -9 -13 3 -34 3 -46 -1 -18 -6 -19 -8 -6
-18 22 -18 24 -51 4 -55 -10 -2 -18 1 -18 7 0 6 5 11 10 11 22 0 8 20 -17 26
-16 4 -36 14 -45 22 -14 11 -18 12 -18 2 0 -7 8 -18 17 -25 19 -14 27 -45 11
-45 -5 0 -12 9 -15 20 -3 11 -9 17 -14 14 -5 -3 -9 4 -9 15 0 12 -4 21 -10 21
-5 0 -10 -7 -10 -16 0 -9 -6 -14 -13 -11 -7 3 -22 -2 -32 -9 -19 -14 -19 -15
3 -21 17 -4 20 -8 11 -14 -8 -4 -16 -4 -19 1 -3 5 -16 10 -30 13 -14 2 -19 2
-12 0 8 -3 11 -11 9 -18 -3 -7 0 -18 6 -24 8 -8 8 -14 0 -22 -7 -7 -18 -3 -38
15 -15 14 -23 26 -16 26 6 0 11 5 11 10 0 6 -7 10 -15 10 -8 0 -15 -7 -15 -15
0 -8 -7 -15 -15 -15 -8 0 -12 6 -9 14 3 7 -2 20 -10 29 -20 19 -21 34 -2 18
18 -15 30 1 21 29 -7 23 -35 27 -35 5 0 -8 -9 -15 -19 -15 -10 0 -21 -7 -25
-15 -6 -18 -26 -20 -26 -3 0 6 8 20 17 31 17 18 17 20 -2 33 -18 13 -20 13
-23 0 -4 -19 -19 -21 -24 -4 -3 7 -11 9 -24 4 -19 -8 -19 -8 1 -16 11 -5 14
-9 8 -9 -7 -1 -13 -10 -13 -21 0 -27 -19 -25 -29 3 -8 20 -10 20 -16 4 -4 -9
-2 -23 4 -31 6 -7 8 -16 5 -19 -4 -4 5 -11 20 -17 30 -11 26 -30 -5 -30 -11 0
-17 -4 -14 -10 4 -6 -5 -7 -23 -4 -21 4 -31 2 -35 -9 -7 -18 -39 -16 -45 3 -3
9 1 11 12 7 15 -6 17 -3 11 25 l-7 32 26 -17 c15 -10 31 -15 36 -12 16 10 0
27 -17 20 -13 -4 -14 -3 -4 9 10 12 9 20 -4 40 -24 36 -40 33 -19 -4 17 -27
12 -59 -4 -33 -9 15 -27 3 -27 -17 0 -19 -52 -23 -59 -4 -11 28 -26 13 -26
-27 0 -32 -4 -42 -19 -46 -11 -3 -22 -12 -24 -22 -3 -11 -5 -9 -6 6 0 12 -6
25 -12 28 -6 4 -10 21 -9 39 3 46 1 56 -9 56 -6 0 -8 -10 -6 -22 7 -34 -5 -66
-26 -71 -10 -3 -19 -12 -19 -21 0 -9 -8 -16 -19 -16 -11 0 -27 -7 -36 -16 -14
-14 -20 -15 -39 -4 -20 10 -28 9 -50 -5 -14 -10 -26 -24 -26 -31 0 -17 12 -18
28 -2 9 9 12 3 12 -27 0 -37 0 -38 20 -20 17 16 20 16 26 2 3 -8 -1 -26 -9
-39 -18 -27 -25 -62 -14 -65 21 -8 29 -2 16 13 -11 14 -11 18 2 28 9 6 14 17
11 25 -3 8 0 11 7 7 6 -4 11 -3 11 3 0 6 7 8 15 5 12 -5 13 -10 4 -20 -8 -10
-5 -20 15 -40 23 -26 25 -26 19 -6 -3 12 -9 22 -14 22 -5 0 -9 5 -9 11 0 6 7
9 15 5 10 -3 15 1 15 12 0 13 2 14 9 4 4 -7 24 -14 44 -15 40 -2 45 -8 22 -31
-8 -8 -15 -17 -15 -20 0 -3 7 -6 15 -6 8 0 15 -4 15 -10 0 -5 5 -10 11 -10 7
0 9 10 5 25 -7 27 4 43 41 64 20 10 22 9 16 -5 -4 -12 -2 -15 8 -12 8 3 13 11
11 17 -1 6 11 11 28 11 16 0 30 -5 30 -12 0 -6 3 -8 7 -5 3 4 11 3 17 -2 6 -5
26 -6 44 -4 23 4 32 11 32 24 0 26 16 24 23 -2 5 -17 9 -19 26 -9 17 9 21 8
21 -5 0 -9 -5 -13 -11 -10 -6 4 -13 -2 -16 -14 -3 -12 -9 -21 -13 -21 -5 0
-12 -9 -15 -21 -5 -15 -10 -18 -18 -10 -7 7 -3 16 13 29 13 11 20 24 16 30
-10 16 -17 15 -46 -7 -20 -16 -22 -22 -11 -34 10 -13 9 -15 -7 -10 -21 5 -31
-18 -32 -72 0 -23 -3 -27 -10 -15 -7 11 -10 3 -10 -30 0 -33 -3 -41 -10 -30
-6 10 -10 11 -10 3 0 -7 -6 -13 -14 -13 -11 0 -12 5 -3 25 7 14 14 25 17 25 3
0 5 22 4 50 0 27 3 47 8 44 4 -3 8 7 8 22 0 27 -1 27 -14 8 -18 -24 -34 -10
-18 16 7 11 12 24 12 30 0 17 -20 11 -27 -7 -3 -10 -13 -26 -21 -35 -15 -18
-14 -19 10 -22 7 0 13 -16 14 -33 2 -31 0 -33 -35 -33 -27 0 -32 -3 -21 -10
13 -8 12 -10 -2 -10 -21 0 -23 -11 -6 -28 9 -9 8 -12 -6 -12 -14 0 -17 6 -14
25 3 14 1 25 -3 25 -5 0 -9 5 -9 10 0 6 9 10 20 10 11 0 20 5 20 10 0 6 -13
10 -30 10 -29 0 -36 -10 -31 -48 2 -10 -2 -10 -18 0 -14 9 -17 14 -8 18 6 3
13 13 13 22 2 26 -37 23 -43 -3 -4 -12 -17 -22 -34 -26 -23 -4 -29 -10 -27
-27 5 -36 -16 -29 -27 9 -10 35 -32 50 -29 19 2 -16 -12 -19 -21 -4 -10 16
-21 11 -33 -15 -9 -20 -9 -25 2 -25 8 0 17 6 20 13 5 9 7 9 12 0 3 -7 12 -13
20 -13 27 0 14 -15 -13 -16 -16 0 -36 -4 -45 -8 -13 -6 -18 -4 -18 8 0 9 -4
16 -10 16 -5 0 -16 15 -24 33 l-14 32 -1 -32 c-1 -17 -7 -38 -14 -45 -8 -7
-18 -26 -24 -43 -10 -32 -33 -46 -33 -20 0 24 -23 13 -31 -16 -6 -23 -7 -23
-14 -4 -14 39 -14 43 1 49 9 3 12 11 9 17 -5 7 -14 4 -29 -9 -21 -19 -59 -42
-70 -42 -3 0 -6 7 -6 15 0 8 9 15 20 15 10 0 24 9 30 21 13 24 4 41 -10 19
-11 -17 -82 -23 -91 -8 -4 6 -6 -8 -5 -30 1 -41 -8 -61 -21 -48 -4 3 -2 11 4
17 14 14 6 39 -12 39 -7 0 -15 -9 -18 -20 -4 -17 -11 -20 -36 -15 -18 3 -31 1
-31 -5 0 -5 7 -10 16 -10 12 0 14 -3 6 -13 -5 -6 -12 -21 -14 -32 -4 -16 -6
-15 -12 10 -13 52 -15 55 -31 55 -13 0 -15 -6 -10 -30 4 -19 3 -30 -4 -30 -6
0 -11 17 -11 38 0 39 -14 62 -37 62 -7 0 -13 -7 -13 -15 0 -8 7 -15 15 -15 8
0 15 -7 15 -15 0 -8 -9 -15 -19 -15 -11 0 -21 -4 -23 -9 -1 -5 -16 -12 -33
-15 -16 -4 -25 -4 -19 -1 6 3 9 19 6 35 -4 25 -7 28 -23 19 -11 -5 -18 -18
-16 -30 3 -30 -27 -47 -54 -31 -11 7 -24 11 -27 8 -3 -3 1 -6 8 -6 11 0 11 -3
2 -12 -7 -7 -12 -21 -12 -32 0 -13 -4 -16 -9 -10 -13 12 7 104 27 127 9 10 10
17 4 17 -6 0 -15 -8 -21 -17 -5 -10 -13 -16 -18 -13 -4 3 -8 -7 -8 -22 -1 -42
-13 -45 -29 -7 -9 19 -15 28 -16 21 0 -7 -4 -10 -10 -7 -6 4 -10 -6 -10 -23 0
-31 19 -46 45 -36 11 5 15 -1 15 -20 0 -26 -13 -35 -25 -16 -5 8 -11 8 -19 1
-7 -6 -31 -13 -54 -17 -54 -8 -54 -19 1 -20 51 -2 110 -30 84 -40 -13 -5 -14
-10 -6 -26 10 -18 9 -18 -10 -8 -13 6 -21 21 -22 38 l-1 27 -7 -25 c-6 -21
-14 -26 -60 -32 -30 -3 -58 -12 -63 -20 -7 -10 -11 -10 -14 -1 -3 7 -12 9 -20
6 -7 -3 -11 -9 -8 -14 9 -14 -4 -10 -26 8 -14 12 -16 20 -9 30 8 9 7 14 -5 19
-35 13 -11 44 35 44 14 0 19 7 19 29 0 16 3 37 6 45 4 12 2 15 -9 10 -8 -3
-18 -21 -21 -40 -6 -28 -11 -34 -31 -34 -16 0 -25 -6 -25 -15 0 -26 -30 -29
-61 -6 -24 18 -33 20 -44 11 -11 -9 -18 -8 -30 4 -9 9 -18 16 -19 16 -7 0 0
-66 8 -71 4 -4 3 -9 -2 -13 -6 -3 -14 3 -17 14 -4 12 -14 20 -23 19 -30 -3
-33 1 -22 21 9 16 8 20 -5 20 -9 0 -18 7 -22 16 -4 12 -8 13 -14 3 -6 -10 -11
-10 -23 0 -13 11 -19 11 -31 1 -9 -7 -15 -8 -15 -2 0 12 -63 26 -107 23 -17
-1 -57 10 -89 24 -34 16 -60 22 -62 16 -2 -5 -12 -1 -23 10 -10 10 -30 19 -44
19 -14 0 -25 5 -25 10 0 6 -6 10 -13 10 -7 0 -19 16 -27 35 -8 19 -20 35 -28
35 -9 0 -11 7 -7 21 5 14 3 19 -3 15 -6 -3 -32 16 -59 42 -68 68 -94 78 -263
102 -70 10 -205 70 -228 102 -21 29 -76 78 -88 78 -6 0 -17 7 -24 15 -7 8 -21
15 -32 15 -11 0 -32 8 -46 19 -15 10 -38 21 -52 24 -15 4 -38 26 -58 55 -18
26 -47 56 -65 67 -17 10 -45 33 -62 51 -16 18 -70 57 -119 88 l-89 56 -29 89
c-33 103 -142 281 -173 281 -10 0 -5 -53 16 -168 29 -167 28 -222 -9 -313 -49
-121 -121 -230 -202 -303 -19 -17 -46 -43 -59 -59 -14 -15 -31 -27 -38 -27 -7
0 -23 -11 -35 -25 -12 -14 -28 -25 -35 -25 -8 0 -12 -4 -9 -8 3 -5 -21 -19
-52 -31 -31 -12 -65 -27 -75 -32 -22 -12 -20 -13 -33 26 -7 22 -16 31 -37 33
-21 3 -27 9 -27 28 0 13 5 23 11 22 6 -2 14 3 17 11 3 8 0 11 -7 7 -6 -4 -19
-2 -28 3 -10 6 -13 11 -7 11 7 0 9 11 6 26 -3 19 -1 25 7 20 16 -11 13 3 -5
22 -15 14 -17 14 -26 -1 -11 -21 -28 -22 -28 -2 0 8 4 15 8 15 4 0 15 13 25
29 14 24 15 30 3 34 -8 3 -17 1 -20 -6 -3 -9 -8 -8 -15 3 -8 11 -11 12 -11 2
0 -9 -7 -11 -21 -7 -20 7 -21 5 -16 -26 3 -19 3 -28 0 -21 -6 15 -33 16 -33 1
0 -5 -5 -7 -11 -3 -8 4 -9 -1 -4 -16 9 -30 -16 -23 -30 8 -12 27 -65 30 -89 6
-15 -14 -16 -14 -16 5 0 12 6 21 15 21 8 0 15 5 15 10 0 6 -4 10 -10 10 -21 0
-9 20 13 21 17 0 13 4 -15 16 -21 8 -38 21 -38 28 0 7 -13 19 -29 26 -19 9
-27 18 -24 30 3 9 0 20 -6 23 -6 4 -11 16 -11 28 0 13 -5 18 -14 15 -10 -4
-13 -1 -9 9 3 8 12 13 21 12 8 -2 17 2 19 9 2 6 -6 13 -19 15 -13 2 -24 11
-26 22 -3 14 0 17 12 13 19 -7 27 4 28 41 1 29 32 52 72 52 17 0 18 2 6 10 -8
5 -11 12 -8 16 11 10 69 15 82 6 25 -16 146 -20 183 -5 18 7 48 13 68 13 19 0
35 4 35 10 0 16 40 -23 41 -40 1 -8 5 1 8 20 4 19 3 44 -2 55 -7 12 -6 20 0
22 26 9 43 31 46 58 6 47 23 72 56 78 21 4 34 16 45 39 19 41 23 69 13 85 -5
8 0 21 12 34 11 12 17 27 15 34 -3 7 5 28 16 48 12 20 19 41 15 47 -3 5 1 20
9 32 9 12 16 30 16 40 0 10 5 18 11 18 5 0 7 5 4 10 -3 6 1 10 9 10 16 0 46
48 46 75 0 8 6 15 14 15 9 0 16 17 21 46 3 25 13 48 21 51 8 3 14 11 14 18 0
7 7 16 16 19 10 4 14 15 12 33 -2 16 -7 26 -13 23 -5 -3 -9 -9 -7 -15 2 -5 0
-7 -3 -3 -9 9 -45 -9 -45 -22 0 -5 8 -11 18 -13 13 -4 11 -5 -5 -6 -13 0 -23
-7 -23 -16 0 -15 -38 -40 -47 -31 -9 9 -44 -14 -38 -25 4 -5 1 -9 -4 -9 -6 0
-11 -8 -11 -19 0 -10 -7 -24 -15 -31 -8 -7 -15 -19 -15 -26 0 -8 -14 -17 -30
-21 -17 -3 -29 -10 -27 -16 2 -6 -7 -22 -20 -35 -21 -22 -22 -27 -8 -34 21
-12 10 -27 -15 -21 -17 4 -20 0 -20 -25 0 -17 -7 -37 -15 -46 -8 -8 -15 -19
-15 -24 0 -25 -44 -90 -57 -85 -9 4 -11 0 -7 -11 3 -8 -1 -23 -11 -32 -15 -15
-15 -14 -9 11 5 20 4 26 -5 21 -6 -4 -11 -18 -11 -30 0 -30 -16 -41 -60 -41
-29 0 -37 -5 -47 -28 -12 -26 -14 -27 -29 -12 -13 12 -19 13 -31 4 -11 -10
-15 -8 -20 9 -3 12 -9 23 -14 23 -19 3 -25 5 -57 22 -18 10 -37 15 -42 12 -6
-3 -10 1 -10 9 0 9 -6 16 -12 16 -8 0 -13 14 -14 35 0 19 3 35 8 35 4 0 8 9 8
21 0 11 7 27 15 36 10 9 12 19 7 27 -12 14 -3 141 12 164 4 7 3 19 -3 26 -9
10 -8 15 5 20 13 5 14 9 5 20 -9 11 -9 16 -1 21 7 4 9 18 6 30 -4 16 -1 25 8
27 12 3 12 9 1 41 -7 20 -9 40 -4 43 21 13 6 32 -28 38 -28 4 -45 15 -63 41
-14 19 -35 38 -47 41 -13 3 -23 10 -23 15 0 15 -30 10 -36 -5 -8 -20 -32 -9
-67 31 -22 25 -33 31 -45 24 -11 -6 -20 -5 -27 5 -6 8 -29 15 -55 15 -25 1
-50 5 -55 10 -6 4 -30 2 -53 -4 -31 -8 -45 -8 -50 -1 -4 6 -18 15 -32 18 -14
4 -41 15 -60 24 -40 18 -69 22 -76 11 -2 -5 -11 -6 -19 -2 -9 3 -15 -1 -15
-11 0 -21 -39 -30 -75 -16 -17 6 -31 11 -32 11 -19 -5 -34 4 -45 27 -7 15 -19
27 -26 27 -18 0 -30 23 -25 50 3 14 -2 30 -14 42 -11 11 -23 38 -26 60 -6 35
-4 41 13 46 12 3 20 0 20 -7 0 -8 10 -11 28 -8 17 2 43 -5 64 -17 20 -11 53
-23 72 -27 20 -3 36 -10 36 -14 0 -5 8 -7 18 -6 10 2 19 14 22 33 6 38 39 83
60 83 9 0 31 -11 50 -25 42 -31 51 -31 79 -1 50 53 122 55 166 6 27 -29 47
-24 78 21 15 22 38 45 52 51 14 6 25 14 25 18 0 4 23 6 50 4 46 -3 52 -1 62
21 6 14 17 25 25 25 19 0 16 10 -9 37 -18 19 -20 26 -9 32 8 5 11 17 6 30 -4
12 -2 21 4 21 6 0 11 10 11 23 0 16 13 29 53 49 44 24 62 27 117 24 36 -2 73
-7 82 -11 12 -5 20 -2 24 9 3 9 10 16 16 16 5 0 6 -5 3 -10 -5 -9 33 -30 54
-30 4 0 8 14 8 31 0 29 -2 30 -29 25 -15 -3 -28 -1 -28 4 0 6 -17 8 -40 5 -23
-3 -40 -1 -40 5 0 6 9 10 20 10 11 0 20 5 20 11 0 6 -8 8 -18 5 -12 -4 -26 1
-37 14 -14 16 -26 19 -52 14 -28 -5 -33 -3 -34 12 0 16 -2 15 -9 -3 -10 -24
-25 -30 -35 -13 -3 6 -14 10 -24 10 -10 0 -24 7 -31 15 -9 10 -17 12 -30 5
-10 -6 -33 -9 -52 -7 -30 2 -33 6 -40 42 -5 22 -9 45 -11 50 -5 15 -96 103
-101 97 -11 -11 -76 10 -100 33 -22 21 -30 23 -50 14 -19 -9 -31 -8 -57 5 -24
12 -35 13 -40 5 -4 -8 -33 -10 -80 -9 -41 2 -99 4 -129 4 -30 1 -61 5 -67 9
-7 5 -17 6 -22 3 -14 -9 -28 15 -35 59 -5 32 -2 48 16 77 23 37 88 88 112 88
8 0 19 7 26 15 7 8 30 25 50 36 21 12 44 33 51 48 8 14 20 30 26 34 7 4 13 17
13 27 0 10 5 22 11 25 6 4 8 13 5 21 -3 8 0 11 9 8 9 -4 16 3 21 20 3 14 10
26 15 26 5 0 9 22 9 49 0 27 5 51 11 53 12 4 39 73 39 101 0 10 8 29 17 43 9
14 18 40 20 57 6 68 12 80 36 72 27 -8 30 -8 87 -1 44 5 46 4 96 -49 29 -30
69 -87 89 -127 54 -103 59 -112 70 -120 5 -4 6 -10 3 -14 -8 -7 16 -59 33 -69
7 -5 8 5 3 32 -4 21 -7 46 -6 55 0 9 -6 19 -14 22 -9 3 -12 11 -8 17 4 8 3 9
-4 5 -8 -5 -12 5 -12 31 0 28 -3 34 -10 23 -10 -16 -13 -9 -11 25 1 11 -9 35
-22 54 -21 30 -22 40 -15 90 15 100 -33 196 -83 165 -8 -4 -9 -3 -5 5 4 6 1
14 -7 17 -14 5 -19 34 -6 34 5 0 6 7 3 15 -7 18 33 35 73 30 15 -2 34 -4 41
-4 9 -1 11 -12 6 -38 -4 -26 -1 -44 10 -58 13 -18 14 -15 11 39 -2 40 -9 62
-19 68 -29 16 -198 20 -307 8 -126 -15 -139 -10 -139 49 0 40 -18 70 -64 114
-35 31 -32 33 13 11 18 -9 49 -38 69 -65 20 -28 46 -52 57 -54 11 -2 92 -7
180 -10 147 -5 163 -4 200 14 22 11 37 20 32 21 -13 0 29 68 59 93 44 36 61
43 174 71 198 48 460 80 460 57 0 -5 -44 -11 -97 -13 -61 -4 -119 -13 -153
-25 -30 -11 -102 -30 -159 -42 -170 -37 -243 -89 -249 -176 -2 -27 -8 -54 -13
-60 -5 -5 -9 -33 -9 -63 0 -61 30 -127 61 -135 25 -7 24 -35 -1 -62 -17 -18
-18 -25 -8 -57 6 -21 15 -35 19 -33 4 3 5 -4 2 -14 -11 -43 83 -162 121 -152
5 1 16 -5 25 -13 9 -8 29 -18 46 -22 16 -4 38 -15 48 -25 10 -9 33 -17 51 -17
18 0 50 -10 72 -21 36 -20 37 -22 17 -27 -19 -5 -22 -11 -17 -33 l5 -26 -20
24 c-12 13 -21 30 -21 38 0 8 -3 13 -7 11 -5 -2 -21 -10 -36 -18 -25 -12 -30
-12 -38 1 -7 11 -9 11 -9 -3 0 -10 -4 -18 -10 -18 -5 0 -10 5 -10 10 0 6 -7
10 -15 10 -26 0 -16 -14 35 -49 51 -34 128 -66 138 -57 3 3 6 26 7 50 1 52 21
82 41 65 7 -6 18 -8 24 -4 5 3 20 -1 32 -9 29 -20 48 -20 63 0 6 9 32 18 58
21 26 3 44 10 41 14 -3 5 2 12 10 15 9 3 16 18 17 33 0 14 3 20 6 14 9 -23 24
-14 17 11 -3 13 -1 27 5 30 16 11 13 36 -3 30 -8 -3 -36 5 -63 17 -26 13 -52
23 -58 23 -5 1 -14 7 -18 14 -5 7 -12 10 -18 7 -5 -3 -6 1 -3 9 3 9 11 16 17
16 5 0 2 8 -7 19 -16 18 -14 20 47 54 35 19 82 38 105 42 23 4 42 11 42 16 0
5 14 9 31 9 24 0 30 -4 25 -15 -3 -9 0 -15 10 -15 8 0 13 4 9 10 -3 5 0 18 7
30 20 31 2 49 -77 76 -98 34 -219 96 -223 115 -4 22 90 26 108 4 7 -8 21 -15
31 -15 10 0 21 -5 24 -11 4 -6 13 -8 20 -5 7 2 25 -5 39 -18 15 -12 40 -30 56
-40 26 -15 31 -15 36 -2 5 13 -28 71 -49 87 -5 3 -7 17 -5 29 2 19 -6 28 -41
45 -55 28 -92 85 -55 85 9 0 14 6 11 13 -3 9 10 18 39 26 24 7 48 20 53 29 7
13 10 12 20 -6 15 -28 57 -29 64 -2 4 14 10 18 23 13 16 -6 16 -5 -1 18 -20
26 -85 38 -85 16 0 -6 -8 0 -17 13 -10 14 -18 29 -18 35 0 5 -20 13 -45 17
-25 4 -46 12 -48 18 -2 5 -14 10 -27 10 -13 0 -27 5 -30 10 -4 6 7 10 24 10
28 0 31 3 31 30 0 28 -2 29 -26 20 -18 -7 -31 -7 -40 1 -8 7 -19 7 -29 2 -9
-5 -40 -6 -68 -2 -29 3 -74 3 -100 -1 -35 -5 -47 -4 -44 5 3 6 -4 11 -17 11
-13 -1 -20 4 -18 13 2 11 -13 12 -85 6 -48 -5 -101 -9 -118 -9 -16 -1 -36 -5
-42 -9 -7 -5 -17 -6 -22 -2 -5 3 -13 1 -16 -5 -4 -6 -21 -8 -42 -4 -31 6 -35
4 -30 -10 4 -10 1 -16 -7 -16 -7 0 -23 -9 -36 -20 -13 -11 -40 -25 -62 -30
-22 -6 -38 -17 -38 -25 0 -18 -12 -19 -28 -3 -18 18 -72 19 -72 2 0 -23 -20
-16 -30 10 -5 13 -14 27 -19 31 -6 3 -11 28 -11 54 0 39 -5 54 -27 77 -15 16
-27 32 -25 36 1 4 -7 12 -18 18 -14 7 -20 7 -20 0 0 -5 -4 -10 -10 -10 -5 0
-10 7 -10 15 0 12 -4 14 -16 7 -9 -5 -25 -7 -34 -5 -18 5 -35 -22 -24 -39 3
-5 -3 -12 -15 -15 -12 -3 -21 -12 -21 -19 0 -14 -20 -20 -20 -6 0 4 -5 14 -10
22 -8 13 -11 12 -24 -5 -15 -20 -15 -20 -16 3 0 13 -6 22 -15 22 -9 0 -15 9
-15 23 -1 21 -1 21 -23 -5 -39 -48 -105 -30 -92 24 8 31 -8 44 -66 52 -35 5
-49 3 -59 -9 -7 -8 -22 -15 -34 -15 -12 0 -34 -11 -49 -26 -23 -21 -28 -22
-33 -10 -3 9 -15 16 -26 16 -17 0 -18 -3 -8 -15 10 -12 10 -15 -3 -15 -8 0
-18 6 -21 13 -3 8 -8 7 -16 -5 -6 -10 -22 -18 -35 -18 -13 0 -27 -4 -30 -10
-10 -15 -35 -12 -35 5 0 8 -8 15 -17 15 -24 0 -49 -17 -40 -27 5 -4 12 -1 17
7 6 8 10 11 10 5 0 -22 -17 -30 -70 -33 -30 -2 -60 -8 -68 -14 -10 -9 -15 -9
-22 1 -4 8 -10 9 -14 3 -3 -5 -23 -13 -43 -17 -55 -10 -249 -15 -233 -5 9 5 5
8 -13 7 -14 -1 -23 -5 -21 -8 7 -11 -47 -17 -75 -9 -14 5 -21 9 -14 9 7 1 15
16 18 34 4 19 25 54 52 82 25 28 45 52 45 55 0 3 6 4 14 2 8 -2 14 4 14 13 0
9 7 15 15 13 9 -2 21 8 28 22 14 28 47 37 74 20 17 -11 17 -11 1 -6 -10 3 -18
1 -18 -4 0 -6 10 -10 21 -10 18 0 19 -3 9 -15 -15 -18 -9 -20 75 -31 79 -11
118 -6 130 13 6 9 20 27 32 40 21 22 21 23 3 23 -11 0 -20 5 -20 11 0 5 8 9
18 8 24 -3 54 11 75 35 22 25 16 72 -11 92 -14 10 -15 15 -4 25 10 11 12 10
12 -4 0 -24 17 -21 25 3 5 14 12 19 25 15 19 -6 33 16 24 39 -3 7 1 16 9 19 8
3 17 21 21 41 7 38 24 56 36 37 5 -9 9 -9 17 1 8 9 7 16 -2 25 -10 10 -16 9
-25 -2 -7 -8 -21 -15 -31 -15 -12 0 -16 -5 -13 -15 10 -25 -12 -17 -24 9 -6
14 -21 26 -34 28 -13 2 -23 10 -23 19 0 16 -25 56 -53 85 -11 12 -10 14 8 14
18 0 20 4 14 22 -4 13 -14 28 -23 35 -14 11 -14 13 4 28 19 16 19 16 -11 12
-24 -2 -31 0 -27 10 4 9 -3 16 -16 20 -13 3 -21 12 -19 22 3 22 -32 73 -48 67
-7 -3 -23 4 -35 15 -20 18 -23 30 -24 95 0 40 3 74 8 74 4 0 7 9 7 20 0 11 7
20 15 20 8 0 15 9 15 19 0 10 7 21 15 25 8 3 15 14 15 24 0 29 26 48 44 33 14
-12 86 -6 86 8 0 3 32 7 70 8 39 1 70 -2 70 -6 0 -17 55 -20 72 -4 16 15 28
14 125 -6 59 -11 110 -26 114 -32 5 -8 13 -7 30 2 21 11 77 14 88 3 2 -2 -2
-11 -9 -19 -11 -13 -9 -19 9 -38 11 -13 21 -28 21 -34 0 -6 6 -13 13 -15 6 -3
13 -16 14 -29 2 -36 8 -55 19 -70 25 -33 27 -41 6 -28 -17 10 -23 10 -36 0
-18 -15 -23 -91 -6 -91 6 0 10 7 10 15 0 10 10 15 33 14 l32 -1 -27 -11 c-32
-12 -35 -31 -11 -55 12 -13 15 -13 11 -2 -6 18 38 43 64 35 21 -7 25 10 3 19
-8 3 -15 13 -15 22 0 13 3 14 13 5 8 -6 17 -8 20 -4 4 3 7 1 7 -6 0 -7 9 -24
19 -37 23 -30 39 -14 17 17 -8 12 -12 28 -9 35 3 9 -2 14 -16 14 -12 0 -21 5
-21 11 0 20 35 3 48 -24 10 -20 20 -27 42 -27 20 0 28 -4 24 -13 -2 -7 2 -27
11 -43 8 -16 15 -23 15 -16 0 6 9 12 20 12 14 0 20 -7 20 -24 0 -14 10 -30 26
-41 14 -9 23 -19 20 -22 -3 -3 3 -16 13 -29 11 -14 17 -33 14 -44 -3 -11 0
-20 6 -20 6 0 11 7 11 16 0 11 5 14 16 10 9 -3 20 -6 25 -6 6 0 7 -9 4 -20 -4
-14 -2 -20 8 -20 8 0 18 -7 21 -16 3 -8 11 -12 17 -9 6 4 8 12 6 19 -3 7 11
11 42 12 25 1 38 -1 29 -3 -22 -5 -24 -23 -2 -23 8 0 12 -5 8 -11 -5 -8 -1 -8
14 0 14 7 23 8 27 1 3 -5 22 -10 41 -10 27 0 34 4 34 19 0 28 -27 33 -49 9
l-20 -21 -7 27 c-3 14 -12 26 -20 26 -8 0 -14 5 -14 10 0 19 29 10 35 -11 5
-14 10 -18 17 -11 6 6 7 16 3 23 -5 7 -9 24 -10 38 -1 14 -6 41 -10 60 -5 24
-4 31 4 27 6 -4 9 -12 6 -17 -4 -5 4 -8 17 -8 13 1 32 -2 43 -5 19 -7 19 -7 3
7 -10 8 -18 22 -18 31 0 9 -8 16 -17 16 -13 0 -11 6 12 30 15 16 32 27 38 23
5 -3 4 -9 -3 -13 -8 -5 -7 -9 5 -14 22 -8 35 1 35 23 0 10 11 24 25 31 14 7
25 20 25 27 0 10 7 12 19 8 12 -3 21 0 25 11 4 9 12 14 21 10 9 -3 18 1 22 10
3 8 12 13 21 9 8 -3 21 0 28 6 11 9 18 9 28 0 10 -8 16 -9 21 -1 3 5 18 10 32
10 15 0 36 12 52 29 21 22 34 28 50 24 17 -4 19 -8 9 -14 -11 -7 -10 -11 2
-19 20 -13 43 -13 35 0 -3 6 -3 10 1 10 11 0 64 -64 64 -79 0 -8 6 -11 16 -7
8 3 13 2 10 -2 -7 -11 3 -23 58 -67 26 -21 52 -48 56 -60 4 -11 21 -27 36 -35
40 -21 54 -41 47 -69 -4 -17 -2 -22 8 -19 19 6 46 -22 51 -52 2 -14 9 -24 16
-22 23 4 45 -28 46 -68 0 -26 7 -43 19 -52 53 -37 53 -36 40 -56 -9 -15 -8
-22 7 -35 12 -10 21 -36 25 -74 4 -32 11 -65 16 -75 5 -9 9 -47 10 -85 1 -37
7 -84 13 -103 7 -19 12 -50 12 -67 -1 -18 2 -33 7 -33 11 0 8 -35 -4 -47 -6
-6 -8 -25 -3 -47 5 -32 14 -41 57 -64 99 -53 131 -92 151 -184 6 -27 9 -28 70
-28 49 0 65 -4 70 -16 12 -31 6 -63 -13 -74 -25 -13 -68 -13 -76 0 -9 15 -51
-9 -52 -31 -1 -12 3 -33 8 -47 6 -15 12 -71 15 -124 5 -96 4 -99 -32 -175 -72
-154 -109 -275 -98 -319 3 -13 1 -31 -5 -38 -8 -10 -9 -16 -1 -21 5 -3 10 -2
10 4 0 5 9 13 20 16 23 7 27 33 5 41 -19 8 -19 28 -2 43 10 8 17 7 27 -2 10
-10 12 -8 7 10 -4 17 4 31 34 58 21 19 46 35 54 35 10 0 15 10 15 28 0 46 11
73 29 70 11 -2 15 3 13 20 -3 17 2 22 18 22 18 0 20 4 14 23 -4 12 -15 28 -25
35 -23 16 -24 32 -3 32 14 0 14 3 4 15 -11 13 -8 15 16 15 39 0 58 14 50 35
-5 14 -2 16 18 11 15 -4 31 1 45 13 12 10 34 24 49 31 15 7 55 46 88 89 34 42
68 75 75 74 8 -2 23 14 34 34 11 20 39 56 62 80 24 24 45 54 49 67 4 18 15 26
40 30 37 7 47 26 13 26 -34 0 -21 44 14 48 21 3 27 9 27 27 0 13 6 30 14 38 8
7 16 25 18 38 2 16 14 29 35 39 21 10 33 22 33 36 0 21 28 54 46 54 17 0 48
72 49 114 0 32 7 48 33 76 22 23 32 42 29 57 -2 12 2 24 9 27 16 6 19 46 4 46
-5 0 -10 7 -10 15 0 8 5 15 11 15 6 0 8 7 5 16 -4 12 -2 15 9 10 11 -4 15 2
15 21 0 14 7 31 15 37 11 8 12 20 6 48 -6 27 -5 40 6 51 12 12 11 19 -8 56
-21 41 -21 43 -4 104 10 34 22 66 29 70 8 6 8 10 0 13 -11 5 -9 20 12 107 7
30 3 33 -26 15 -15 -10 -22 -10 -32 0 -11 11 -9 16 6 27 16 12 17 17 5 31 -7
9 -12 29 -11 45 4 33 -4 36 -29 13 -17 -15 -18 -15 -17 2 0 11 -1 26 -4 34 -3
8 -3 12 -1 7 8 -14 23 4 23 28 0 12 6 25 14 28 9 3 12 15 9 31 -3 15 -1 26 6
26 6 0 11 8 11 18 0 10 6 24 13 31 10 11 9 14 -1 18 -7 3 -19 11 -26 19 -8 8
-22 14 -30 14 -11 0 -16 8 -15 28 1 15 0 34 -3 42 -3 8 -3 12 -1 8 3 -5 9 -8
15 -8 5 0 -3 15 -18 34 -59 69 -66 79 -57 85 6 3 11 31 12 61 1 37 7 59 17 67
12 9 13 16 4 33 -6 11 -9 26 -7 33 2 7 -4 22 -15 34 -15 16 -18 29 -13 52 4
17 11 31 16 31 5 0 9 13 9 30 0 31 -22 50 -59 50 -18 0 -21 6 -21 44 0 25 -4
48 -10 51 -5 3 -10 14 -10 24 0 10 -9 25 -21 32 -19 13 -20 18 -9 69 10 50 12
80 10 133 -1 9 -12 29 -24 42 -29 31 -41 97 -24 125 11 17 11 22 0 29 -7 4
-12 19 -11 32 5 57 -18 79 -81 79 -17 0 -30 5 -30 10 0 6 -11 10 -24 10 -33 0
-56 25 -56 60 0 16 -6 31 -12 33 -10 4 -9 6 1 6 8 1 20 -7 27 -16 12 -17 13
-16 14 4 0 15 -7 23 -22 25 -29 4 -38 38 -10 38 14 0 21 8 24 28 3 24 -1 31
-26 42 -17 8 -36 21 -43 29 -6 9 -15 12 -20 8 -4 -5 -1 -14 7 -20 9 -7 17 -25
18 -41 l2 -30 -24 23 c-31 29 -66 21 -66 -15 0 -26 -17 -33 -26 -10 -3 8 -20
17 -37 20 -18 4 -48 20 -67 37 -28 25 -31 32 -20 40 8 5 23 7 33 5 25 -6 21
17 -6 29 -29 14 -60 7 -53 -11 3 -8 1 -14 -4 -14 -5 0 -11 8 -13 18 -4 16 -5
16 -6 0 -1 -11 -9 -18 -22 -18 -26 0 -114 76 -114 98 0 13 -9 17 -39 17 -23 0
-41 5 -43 13 -3 6 -15 12 -27 12 -12 0 -27 5 -33 11 -8 8 -14 6 -22 -10 -9
-15 -16 -19 -29 -12 -9 5 -29 14 -45 20 -23 9 -26 15 -21 36 5 22 3 25 -20 25
-14 0 -26 5 -26 10 0 6 -11 15 -25 20 -19 7 -25 17 -25 40 0 27 -2 29 -27 24
-18 -3 -43 3 -68 16 -23 12 -41 16 -43 10 -7 -20 -30 -10 -36 16 -6 21 -12 25
-34 22 -19 -2 -27 2 -27 12 0 8 -10 23 -22 33 -26 21 -34 22 -27 3 4 -11 -6
-14 -45 -14 -32 0 -49 4 -48 12 2 13 -5 12 -93 -7 -36 -8 -69 -11 -75 -7 -18
13 -85 22 -85 10 0 -5 -9 -10 -21 -10 -11 0 -17 5 -14 10 3 6 0 10 -8 10 -14
0 -43 57 -49 95 -2 11 -8 20 -15 20 -6 0 -15 3 -19 8 -4 4 -16 7 -26 7 -18 0
-35 15 -81 70 -19 23 -44 23 -116 3 -17 -4 -22 -3 -17 5 9 15 1 15 -24 2 -13
-7 -21 -7 -25 0 -3 5 -1 10 6 10 7 0 10 3 6 6 -3 4 -31 8 -61 10 -46 4 -55 2
-50 -10 4 -10 0 -15 -13 -14 -10 0 -26 -3 -35 -7 -13 -5 -18 -3 -18 9 0 9 -4
16 -10 16 -5 0 -10 -7 -10 -16 0 -11 -5 -14 -16 -10 -9 3 -24 6 -35 6 -10 0
-19 5 -19 11 0 6 8 8 19 4 26 -8 33 7 18 39 -14 29 -35 33 -56 10z m1126 -376
c-3 -8 -6 -5 -6 6 -1 11 2 17 5 13 3 -3 4 -12 1 -19z m-2857 -168 c0 -5 -4
-10 -10 -10 -5 0 -10 5 -10 10 0 6 5 10 10 10 6 0 10 -4 10 -10z m3831 -322
c10 -18 9 -20 -6 -15 -9 4 -19 7 -21 7 -2 0 -4 7 -4 15 0 22 18 18 31 -7z m14
-58 c3 -5 1 -10 -4 -10 -6 0 -11 5 -11 10 0 6 2 10 4 10 3 0 8 -4 11 -10z
m-36 -36 c-15 -18 -22 -13 -13 10 3 9 10 13 16 10 5 -3 4 -12 -3 -20z m-4446
10 c11 -11 -3 -24 -18 -18 -8 4 -12 10 -9 15 6 11 18 12 27 3z m-93 -156 c0
-16 -3 -19 -11 -11 -6 6 -8 16 -5 22 11 17 16 13 16 -11z m2190 -1418 c0 -5
-2 -10 -4 -10 -3 0 -8 5 -11 10 -3 6 -1 10 4 10 6 0 11 -4 11 -10z m240 0 c0
-5 -5 -10 -11 -10 -5 0 -7 5 -4 10 3 6 8 10 11 10 2 0 4 -4 4 -10z m-955 -159
c3 -5 1 -12 -5 -16 -5 -3 -10 1 -10 9 0 18 6 21 15 7z m1255 -40 c0 -9 5 -22
12 -29 13 -13 0 -16 -18 -4 -15 10 -34 48 -28 55 11 10 34 -5 34 -22z m-1110
-245 c0 -2 -7 -9 -15 -16 -13 -11 -14 -10 -9 4 5 14 24 23 24 12z m2230 -236
c0 -5 -4 -10 -10 -10 -5 0 -10 5 -10 10 0 6 5 10 10 10 6 0 10 -4 10 -10z
m-4355 -69 c-3 -12 -11 -21 -16 -21 -14 0 -11 38 4 43 17 6 20 2 12 -22z
m2090 -301 c151 -14 328 -50 314 -65 -3 -2 -22 0 -44 6 -68 16 -266 38 -351
39 -45 0 -148 -7 -230 -15 -236 -24 -344 -55 -398 -115 -25 -29 -28 -40 -31
-123 -6 -141 53 -397 112 -487 13 -19 23 -39 23 -45 1 -15 40 -62 40 -48 0 6
-4 14 -9 17 -4 3 -6 27 -4 53 3 35 1 44 -6 33 -8 -12 -11 -6 -11 23 0 20 5 37
11 37 6 0 9 6 6 13 -2 6 10 22 26 34 27 20 32 21 56 8 14 -8 59 -26 98 -41 40
-15 70 -30 67 -33 -3 -3 -35 -5 -72 -3 -60 2 -65 1 -49 -12 11 -8 35 -17 56
-21 60 -10 69 -20 40 -44 -26 -21 -24 -23 34 -35 18 -4 27 -2 27 6 0 7 12 0
26 -17 14 -16 23 -24 19 -17 -10 19 13 14 46 -10 25 -19 33 -20 49 -10 16 10
20 10 20 -2 0 -21 62 -29 96 -12 25 14 30 14 46 -1 13 -12 21 -13 31 -4 8 6
34 12 58 13 24 0 55 5 69 11 14 6 34 12 45 14 11 1 29 7 40 13 11 5 45 20 75
33 30 13 76 44 102 69 26 25 49 43 52 40 3 -3 3 -22 0 -42 -4 -22 -1 -47 6
-60 11 -21 14 -18 51 56 38 77 49 136 29 149 -5 3 -10 -1 -10 -9 0 -19 -9 -20
-45 -6 -35 13 -30 47 11 69 18 10 40 25 49 35 10 9 23 15 30 12 18 -6 35 37
35 89 0 38 3 45 20 45 11 0 20 -6 21 -12 7 -87 -35 -237 -105 -373 -37 -73
-115 -195 -125 -195 -4 0 -15 -13 -24 -30 -10 -16 -25 -30 -33 -30 -8 0 -20
-11 -26 -25 -6 -14 -16 -24 -22 -22 -6 2 -29 -5 -50 -16 -65 -32 -204 -66
-323 -79 -62 -6 -113 -15 -113 -20 0 -4 7 -8 15 -8 8 0 15 -4 15 -10 0 -14
-37 -31 -68 -31 -15 1 -36 1 -47 1 -33 0 -52 -5 -70 -20 -9 -8 -24 -15 -32
-16 -23 -4 -27 -12 -13 -29 11 -13 8 -15 -19 -15 -20 0 -30 4 -26 11 4 6 1 10
-6 8 -34 -4 -50 3 -59 24 -7 17 -9 18 -9 5 -1 -11 -9 -18 -20 -18 -11 0 -28
-3 -38 -7 -16 -6 -16 -5 -4 11 12 15 12 19 -2 33 -10 10 -22 13 -34 8 -17 -8
-17 -8 0 -12 25 -6 21 -23 -5 -23 -18 0 -23 6 -25 30 -1 17 3 43 9 58 6 15 10
35 9 45 -2 11 7 26 18 34 23 15 28 43 9 43 -6 0 -4 8 6 19 14 15 15 24 7 39
-6 11 -14 22 -18 24 -12 5 -78 109 -112 176 -17 33 -46 111 -65 174 -32 107
-46 172 -55 261 -1 5 -5 6 -11 2 -5 -3 -26 2 -47 10 -53 23 -74 26 -90 14 -18
-15 -39 -5 -46 21 -5 18 2 25 39 42 29 12 62 18 91 17 l46 -3 17 51 c18 57 58
110 98 131 107 56 434 85 687 62z m1048 -260 c-3 -11 -9 -17 -14 -15 -10 7 -1
35 11 35 5 0 6 -9 3 -20z m-1138 -76 c25 -10 -2 -24 -47 -24 -41 0 -52 16 -15
23 37 7 45 7 62 1z m1863 -187 c20 -11 32 -24 30 -34 -5 -24 -49 -53 -90 -59
-34 -6 -35 -5 -31 20 7 32 -11 56 -37 49 -30 -8 -24 9 12 38 34 29 37 28 116
-14z m-981 11 c-3 -8 -6 -5 -6 6 -1 11 2 17 5 13 3 -3 4 -12 1 -19z m-2292
-108 c19 -8 19 -9 -2 -9 -12 -1 -25 4 -28 9 -7 12 2 12 30 0z m45 -34 c0 -3
-4 -8 -10 -11 -5 -3 -10 -1 -10 4 0 6 5 11 10 11 6 0 10 -2 10 -4z m1778 -428
c-3 -7 -11 -13 -19 -13 -8 0 -17 -4 -21 -10 -4 -5 -10 -7 -13 -3 -9 8 24 38
42 38 8 0 13 -6 11 -12z m822 -666 c0 -13 -12 -22 -22 -16 -10 6 -1 24 13 24
5 0 9 -4 9 -8z m-680 -73 c76 -16 83 -17 110 -19 24 -1 25 -1 5 -15 -11 -8
-25 -18 -30 -22 -19 -14 -83 -23 -210 -27 -38 -2 -74 -4 -80 -6 -22 -7 -115
-5 -115 3 0 18 22 47 31 42 5 -4 12 1 15 10 4 10 13 13 26 9 10 -3 25 -1 33 6
11 9 68 20 152 29 7 0 35 -4 63 -10z m1100 -1509 c0 -5 -5 -10 -11 -10 -5 0
-7 5 -4 10 3 6 8 10 11 10 2 0 4 -4 4 -10z m5350 -204 c0 -3 -4 -8 -10 -11 -5
-3 -10 -1 -10 4 0 6 5 11 10 11 6 0 10 -2 10 -4z m-70 -46 c0 -5 -4 -10 -9
-10 -6 0 -13 5 -16 10 -3 6 1 10 9 10 9 0 16 -4 16 -10z m-125 -50 c3 -5 1
-10 -4 -10 -6 0 -11 5 -11 10 0 6 2 10 4 10 3 0 8 -4 11 -10z m-530 -69 c-17
-15 -17 -15 -11 2 3 10 6 26 6 35 1 15 2 15 11 -2 9 -14 7 -22 -6 -35z m480
-8 c-3 -16 -11 -29 -16 -31 -5 -2 -9 -9 -9 -15 0 -15 -41 -35 -58 -29 -10 3
-10 7 -2 17 6 8 18 11 26 8 9 -3 14 2 14 16 0 15 4 19 16 14 14 -5 16 -1 12
20 -4 19 -1 27 9 27 11 0 13 -7 8 -27z m-95 -35 c0 -6 -7 -7 -15 -4 -9 3 -18
-1 -21 -9 -9 -21 -24 -18 -24 4 0 20 24 31 48 23 6 -2 12 -9 12 -14z m-324
-63 c-7 -20 -36 -19 -36 1 0 8 5 12 10 9 6 -3 13 2 17 11 4 12 8 14 11 6 2 -7
1 -19 -2 -27z m-5305 -42 c-12 -20 -14 -14 -5 12 4 9 9 14 11 11 3 -2 0 -13
-6 -23z m5284 -23 c3 -5 -3 -10 -14 -10 -12 0 -21 5 -21 10 0 6 6 10 14 10 8
0 18 -4 21 -10z m-571 -17 c9 -22 -12 -43 -23 -24 -10 15 -4 41 9 41 4 0 11
-8 14 -17z m512 -23 c7 -7 19 -8 37 -1 36 14 36 -5 0 -22 -21 -9 -27 -9 -31 1
-2 6 -17 12 -32 12 -16 0 -32 5 -35 10 -8 13 48 13 61 0z m109 0 c3 -5 -1 -10
-10 -10 -9 0 -13 5 -10 10 3 6 8 10 10 10 2 0 7 -4 10 -10z m-175 -50 c0 -5
-5 -10 -11 -10 -5 0 -7 5 -4 10 3 6 8 10 11 10 2 0 4 -4 4 -10z m-440 -12 c0
-7 3 -24 6 -38 5 -23 5 -24 -7 -5 -7 11 -17 23 -22 26 -11 8 -1 29 14 29 5 0
9 -6 9 -12z m-209 -13 c-1 -15 -24 -12 -29 3 -3 9 2 13 12 10 10 -1 17 -7 17
-13z m579 -5 c0 -11 -4 -20 -10 -20 -5 0 -10 9 -10 20 0 11 5 20 10 20 6 0 10
-9 10 -20z m-4765 0 c3 -5 1 -10 -4 -10 -6 0 -11 5 -11 10 0 6 2 10 4 10 3 0
8 -4 11 -10z m4459 -23 c4 -19 3 -26 -4 -22 -5 3 -10 18 -10 32 0 32 5 28 14
-10z m86 13 c0 -5 -4 -10 -10 -10 -5 0 -10 5 -10 10 0 6 5 10 10 10 6 0 10 -4
10 -10z m178 -35 c-3 -3 -9 2 -12 12 -6 14 -5 15 5 6 7 -7 10 -15 7 -18z
m-113 5 c-3 -5 -10 -10 -16 -10 -5 0 -9 5 -9 10 0 6 7 10 16 10 8 0 12 -4 9
-10z m-55 -20 c0 -5 -7 -10 -16 -10 -8 0 -12 5 -9 10 3 6 10 10 16 10 5 0 9
-4 9 -10z m220 0 c0 -5 -2 -10 -4 -10 -3 0 -8 5 -11 10 -3 6 -1 10 4 10 6 0
11 -4 11 -10z m-810 -71 c0 -6 -4 -7 -10 -4 -5 3 -10 11 -10 16 0 6 5 7 10 4
6 -3 10 -11 10 -16z m31 -12 c-10 -9 -11 -8 -5 6 3 10 9 15 12 12 3 -3 0 -11
-7 -18z m129 -17 c0 -5 -4 -10 -10 -10 -5 0 -10 5 -10 10 0 6 5 10 10 10 6 0
10 -4 10 -10z m-70 -30 c0 -5 -2 -10 -4 -10 -3 0 -8 5 -11 10 -3 6 -1 10 4 10
6 0 11 -4 11 -10z m380 -20 c0 -5 -2 -10 -4 -10 -3 0 -8 5 -11 10 -3 6 -1 10
4 10 6 0 11 -4 11 -10z m117 -22 c-3 -8 -6 -5 -6 6 -1 11 2 17 5 13 3 -3 4
-12 1 -19z m-77 -7 c0 -12 -20 -25 -27 -18 -7 7 6 27 18 27 5 0 9 -4 9 -9z
m-66 -16 c3 -8 1 -15 -4 -15 -6 0 -10 7 -10 15 0 8 2 15 4 15 2 0 6 -7 10 -15z
m86 -35 c0 -5 -4 -10 -10 -10 -5 0 -10 5 -10 10 0 6 5 10 10 10 6 0 10 -4 10
-10z m-28 -35 c4 -21 1 -25 -19 -25 -13 0 -22 3 -20 8 2 4 7 15 10 25 9 25 24
21 29 -8z m-123 -22 c19 -14 3 -17 -19 -3 -9 6 -17 5 -22 -3 -5 -8 -8 -7 -8 4
0 22 23 44 29 27 2 -7 11 -18 20 -25z m-319 -41 c-12 -17 -19 -35 -16 -41 4
-6 2 -11 -3 -11 -19 0 -12 43 11 67 29 31 35 21 8 -15z m160 -3 c0 -5 -7 -6
-15 -3 -8 4 -15 13 -15 21 0 13 3 13 15 3 8 -7 15 -16 15 -21z m270 11 c0 -5
-8 -10 -17 -10 -15 0 -16 2 -3 10 19 12 20 12 20 0z m-376 -27 c-26 -19 -36
-16 -24 7 6 12 16 17 27 13 14 -6 14 -8 -3 -20z m-274 8 c0 -5 -6 -14 -14 -20
-12 -10 -13 -8 -9 8 5 21 23 30 23 12z m336 -48 c-3 -3 -12 0 -21 7 -12 10
-15 10 -15 0 0 -8 -3 -10 -6 -7 -4 4 -1 13 6 21 11 14 14 14 27 0 9 -8 13 -18
9 -21z m-226 18 c0 -11 -26 -22 -34 -14 -12 12 -5 23 14 23 11 0 20 -4 20 -9z
m316 -28 c-10 -10 -19 5 -10 18 6 11 8 11 12 0 2 -7 1 -15 -2 -18z m-448 -12
c3 -8 -1 -12 -9 -9 -7 2 -15 10 -17 17 -3 8 1 12 9 9 7 -2 15 -10 17 -17z
m-132 0 c-7 -11 -56 -21 -56 -10 0 4 8 10 18 12 30 8 43 7 38 -2z m191 -13
c-3 -8 -6 -5 -6 6 -1 11 2 17 5 13 3 -3 4 -12 1 -19z m-377 -2 c0 -8 -4 -18
-10 -21 -5 -3 -10 3 -10 14 0 12 5 21 10 21 6 0 10 -6 10 -14z m800 10 c0 -3
-4 -8 -10 -11 -5 -3 -10 -1 -10 4 0 6 5 11 10 11 6 0 10 -2 10 -4z m-635 -26
c-3 -5 -12 -10 -18 -10 -7 0 -6 4 3 10 19 12 23 12 15 0z m-344 -32 c10 -19 9
-20 -7 -13 -11 4 -26 7 -34 7 -26 -1 -42 7 -35 18 12 19 64 11 76 -12z m716 0
c-3 -8 -6 -5 -6 6 -1 11 2 17 5 13 3 -3 4 -12 1 -19z m-27 -22 c0 -3 -4 -8
-10 -11 -5 -3 -10 -1 -10 4 0 6 5 11 10 11 6 0 10 -2 10 -4z m20 -43 c-11 -17
-11 -17 -6 0 3 10 7 26 7 35 1 15 2 15 6 0 2 -10 -1 -25 -7 -35z m-1450 17 c0
-5 -5 -10 -11 -10 -5 0 -7 5 -4 10 3 6 8 10 11 10 2 0 4 -4 4 -10z m190 -31
c0 -14 -17 -10 -23 5 -4 10 -1 13 9 9 7 -3 14 -9 14 -14z m-50 -10 c0 -7 21
-10 57 -7 48 2 58 0 61 -14 2 -12 -3 -18 -15 -18 -15 0 -16 2 -3 10 13 8 13
10 -2 10 -9 0 -19 -4 -22 -9 -3 -5 -21 -5 -41 -1 -32 7 -35 6 -30 -11 8 -23
-10 -26 -19 -3 -9 24 -7 54 4 54 6 0 10 -5 10 -11z m40 -43 c0 -3 -4 -8 -10
-11 -5 -3 -10 -1 -10 4 0 6 5 11 10 11 6 0 10 -2 10 -4z m230 -11 c0 -8 -4
-15 -10 -15 -5 0 -10 7 -10 15 0 8 5 15 10 15 6 0 10 -7 10 -15z m40 0 c0 -8
-7 -15 -15 -15 -16 0 -20 12 -8 23 11 12 23 8 23 -8z m294 -50 c3 -8 1 -15 -4
-15 -6 0 -10 7 -10 15 0 8 2 15 4 15 2 0 6 -7 10 -15z m-199 -15 c3 -5 -1 -10
-9 -10 -9 0 -16 5 -16 10 0 6 4 10 9 10 6 0 13 -4 16 -10z m288 -196 c-4 -10
-9 -12 -15 -6 -12 12 -1 35 12 27 5 -3 6 -13 3 -21z m-3778 -396 c14 -6 25
-16 25 -22 0 -6 -5 -5 -12 2 -7 7 -20 12 -30 12 -10 0 -18 5 -18 10 0 13 3 13
35 -2z m-1 -47 c10 -11 16 -30 14 -43 -4 -22 -5 -22 -23 8 l-19 31 -17 -21
c-14 -17 -20 -18 -30 -9 -10 10 -9 17 6 33 23 25 47 26 69 1z m1 -134 c9 -33
-32 -55 -66 -36 -27 14 -48 38 -49 55 0 16 39 12 50 -6 8 -13 10 -13 14 0 3 8
4 24 2 35 -2 11 -1 24 1 28 6 10 40 -44 48 -76z"/>
<path d="M5357 4963 c-16 -8 -25 -8 -35 0 -11 8 -16 7 -23 -6 -6 -9 -20 -17
-32 -17 -27 0 -91 -31 -94 -45 -1 -6 -24 -13 -50 -16 -54 -7 -83 -17 -83 -30
0 -5 -9 -18 -20 -29 -11 -11 -20 -32 -20 -46 l0 -27 88 6 c48 2 110 13 137 22
77 27 185 108 185 139 0 10 9 16 25 16 18 0 25 5 25 20 0 11 -3 20 -7 21 -46
4 -78 2 -96 -8z"/>
<path d="M5028 4963 c7 -3 16 -2 19 1 4 3 -2 6 -13 5 -11 0 -14 -3 -6 -6z"/>
<path d="M4548 4803 c7 -3 16 -2 19 1 4 3 -2 6 -13 5 -11 0 -14 -3 -6 -6z"/>
<path d="M4476 4671 c-4 -7 -5 -15 -2 -18 9 -9 19 4 14 18 -4 11 -6 11 -12 0z"/>
<path d="M5510 9355 c0 -8 7 -15 15 -15 8 0 15 4 15 9 0 5 -7 11 -15 15 -9 3
-15 0 -15 -9z"/>
<path d="M5080 9259 c0 -11 5 -17 10 -14 6 3 10 13 10 21 0 8 -4 14 -10 14 -5
0 -10 -9 -10 -21z"/>
<path d="M5000 9210 c0 -5 5 -10 10 -10 6 0 10 5 10 10 0 6 -4 10 -10 10 -5 0
-10 -4 -10 -10z"/>
<path d="M6925 9190 c3 -5 8 -10 11 -10 2 0 4 5 4 10 0 6 -5 10 -11 10 -5 0
-7 -4 -4 -10z"/>
<path d="M7485 8910 c-3 -5 1 -10 9 -10 9 0 16 5 16 10 0 6 -4 10 -9 10 -6 0
-13 -4 -16 -10z"/>
<path d="M7712 8838 c5 -15 28 -23 28 -10 0 5 -7 13 -16 16 -10 4 -14 1 -12
-6z"/>
<path d="M8105 8511 c-3 -5 -1 -12 5 -16 5 -3 10 1 10 9 0 18 -6 21 -15 7z"/>
<path d="M3430 8434 l-25 -14 28 2 c15 1 27 8 27 15 0 7 -1 13 -2 12 -2 -1
-14 -7 -28 -15z"/>
<path d="M3145 8140 c-4 -7 -2 -16 6 -21 18 -11 23 -4 11 17 -7 12 -11 13 -17
4z"/>
<path d="M3200 8000 c0 -5 5 -10 11 -10 5 0 7 5 4 10 -3 6 -8 10 -11 10 -2 0
-4 -4 -4 -10z"/>
<path d="M3020 7930 c-12 -7 -12 -12 -2 -22 9 -9 12 -9 12 0 0 7 9 12 21 12
11 0 17 5 14 10 -8 12 -25 13 -45 0z"/>
<path d="M3005 7880 c-3 -6 1 -7 9 -4 18 7 21 14 7 14 -6 0 -13 -4 -16 -10z"/>
<path d="M8443 7684 c-3 -8 -1 -20 6 -27 8 -8 11 -4 11 16 0 30 -7 35 -17 11z"/>
<path d="M2953 7524 c-13 -14 -23 -33 -23 -42 0 -10 9 -3 25 18 14 19 31 37
37 42 10 6 9 8 -2 8 -8 0 -25 -12 -37 -26z"/>
<path d="M2980 7470 c0 -5 5 -10 10 -10 6 0 10 5 10 10 0 6 -4 10 -10 10 -5 0
-10 -4 -10 -10z"/>
<path d="M2875 7450 c-17 -7 -15 -9 13 -9 17 -1 32 4 32 9 0 12 -17 12 -45 0z"/>
<path d="M5130 7179 c0 -5 5 -7 10 -4 6 3 10 8 10 11 0 2 -4 4 -10 4 -5 0 -10
-5 -10 -11z"/>
<path d="M5593 6933 c9 -9 20 -13 24 -9 4 4 1 11 -7 16 -25 16 -35 11 -17 -7z"/>
<path d="M5711 6794 c0 -11 3 -14 6 -6 3 7 2 16 -1 19 -3 4 -6 -2 -5 -13z"/>
<path d="M5628 6778 c-2 -13 -9 -22 -16 -20 -17 3 -15 -6 8 -30 11 -12 20 -16
20 -10 0 7 5 12 11 12 6 0 8 -9 4 -20 -5 -14 -2 -20 9 -20 9 0 16 5 16 10 0 6
7 10 15 10 8 0 15 -4 15 -10 0 -5 7 -10 15 -10 8 0 15 7 15 15 0 8 -8 15 -19
15 -14 0 -17 6 -13 27 4 23 2 25 -14 19 -33 -13 -38 -12 -42 12 -2 12 -7 22
-12 22 -5 0 -10 -10 -12 -22z"/>
<path d="M5430 6690 c0 -5 -9 -10 -20 -10 -11 0 -20 -4 -20 -9 0 -5 -15 -13
-32 -17 -29 -6 -30 -8 -13 -14 12 -5 29 -2 43 7 13 8 31 11 41 8 15 -4 17 -1
13 20 -4 25 -12 34 -12 15z"/>
<path d="M5481 6680 c-14 -12 -18 -20 -10 -21 8 0 4 -4 -8 -9 -13 -5 -23 -14
-23 -20 0 -6 -4 -9 -9 -6 -5 4 -32 1 -60 -6 -43 -10 -50 -15 -45 -30 4 -13 0
-18 -15 -18 -22 0 -29 -24 -9 -36 6 -4 39 -7 72 -7 35 1 64 -4 68 -10 4 -7 10
7 14 29 6 40 7 41 43 41 40 -1 92 21 99 41 3 11 0 11 -16 1 -10 -7 -27 -9 -36
-6 -14 5 -15 11 -6 27 8 16 8 24 -4 35 -19 19 -26 19 -55 -5z m14 -60 c3 -5 1
-10 -4 -10 -6 0 -11 5 -11 10 0 6 2 10 4 10 3 0 8 -4 11 -10z m-105 -56 c0 -2
-12 -4 -27 -4 -21 0 -24 3 -14 9 13 8 41 5 41 -5z"/>
<path d="M5177 6594 c-8 -8 1 -24 14 -24 5 0 9 7 9 15 0 15 -12 20 -23 9z"/>
<path d="M6050 6581 c0 -6 5 -13 10 -16 6 -3 10 1 10 9 0 9 -4 16 -10 16 -5 0
-10 -4 -10 -9z"/>
<path d="M5388 6493 c7 -3 16 -2 19 1 4 3 -2 6 -13 5 -11 0 -14 -3 -6 -6z"/>
<path d="M5355 6479 c-4 -6 -5 -12 -2 -15 2 -3 7 2 10 11 7 17 1 20 -8 4z"/>
<path d="M5218 6457 c-2 -12 -3 -28 0 -35 5 -17 39 -15 45 2 4 10 1 13 -7 10
-8 -3 -17 -1 -21 5 -3 6 1 11 9 11 9 0 16 7 16 15 0 25 -37 18 -42 -8z"/>
<path d="M5075 6310 c3 -5 8 -10 11 -10 2 0 4 5 4 10 0 6 -5 10 -11 10 -5 0
-7 -4 -4 -10z"/>
<path d="M2710 6281 c-12 -30 -40 -50 -40 -29 0 6 -3 8 -7 5 -3 -4 2 -16 12
-27 14 -16 21 -18 28 -8 7 10 10 10 14 1 6 -15 83 -18 83 -3 0 6 -5 10 -11 10
-7 0 -9 9 -5 24 6 25 -5 39 -40 50 -17 5 -24 1 -34 -23z"/>
<path d="M2823 6234 c-3 -8 -1 -20 6 -27 8 -8 11 -4 11 16 0 30 -7 35 -17 11z"/>
<path d="M7015 5850 c28 -12 47 -12 40 0 -3 6 -18 10 -33 9 -24 0 -25 -1 -7
-9z"/>
<path d="M7060 5771 c0 -5 9 -11 20 -14 24 -6 27 8 4 17 -21 8 -24 8 -24 -3z"/>
<path d="M7349 5703 c-5 -117 -11 -178 -18 -183 -5 -3 -2 -38 7 -77 16 -70 18
-73 45 -73 25 0 27 -3 21 -22 -15 -48 -12 -138 6 -138 9 0 35 77 45 133 4 27
3 37 -4 32 -6 -3 -12 2 -13 12 -7 88 -5 101 17 83 24 -20 32 -3 34 71 2 63 -1
77 -24 110 -16 22 -43 44 -66 53 -49 20 -49 20 -50 -1z"/>
<path d="M7486 5287 c-37 -109 -38 -115 -29 -197 l8 -85 35 60 c35 60 35 61
37 192 2 73 -1 134 -6 137 -4 3 -25 -45 -45 -107z"/>
<path d="M6130 5333 c1 -10 8 -29 16 -43 8 -14 13 -17 10 -7 -3 10 -6 30 -6
43 0 13 -4 24 -10 24 -5 0 -10 -8 -10 -17z"/>
<path d="M6160 5220 c0 -5 -6 -10 -14 -10 -34 0 -16 -69 24 -90 11 -6 20 -20
20 -30 0 -11 5 -20 10 -20 14 0 13 14 -10 91 -19 63 -30 85 -30 59z"/>
<path d="M6990 5200 c0 -5 7 -7 15 -4 8 4 15 8 15 10 0 2 -7 4 -15 4 -8 0 -15
-4 -15 -10z"/>
<path d="M6881 5091 c-7 -5 -9 -11 -4 -14 5 -3 15 -2 22 2 7 5 22 6 32 4 10
-3 19 0 19 6 0 13 -49 15 -69 2z"/>
<path d="M7382 5030 c-6 -11 -12 -52 -12 -92 0 -78 8 -87 16 -17 4 45 11 80
20 112 7 23 -8 22 -24 -3z"/>
<path d="M6408 4883 c7 -3 16 -2 19 1 4 3 -2 6 -13 5 -11 0 -14 -3 -6 -6z"/>
<path d="M6200 4859 c0 -9 9 -28 20 -42 11 -14 20 -32 20 -41 0 -9 5 -16 10
-16 6 0 10 -6 10 -14 0 -18 22 -26 49 -19 12 3 21 1 21 -6 0 -8 14 -10 40 -7
37 5 70 -12 42 -22 -19 -6 -14 -28 13 -60 14 -17 25 -35 25 -41 0 -6 4 -11 8
-11 8 0 30 -42 73 -137 12 -27 28 -60 35 -75 8 -14 14 -33 14 -42 0 -9 16 -33
35 -53 35 -37 44 -70 25 -89 -7 -7 -5 -21 6 -43 16 -31 15 -32 -12 -57 -34
-33 -34 -72 1 -109 28 -31 40 -66 31 -91 -4 -11 -10 -13 -19 -6 -6 5 -37 8
-67 7 -30 -2 -64 1 -77 6 -13 5 -23 4 -25 -2 -4 -13 -168 -20 -168 -6 0 5 -8
3 -18 -6 -10 -10 -24 -17 -30 -17 -7 0 -12 -7 -12 -15 0 -21 -13 -19 -28 5 -8
13 -23 20 -42 20 -27 0 -30 -3 -30 -29 0 -28 2 -29 34 -24 19 3 49 1 66 -5 25
-9 32 -8 37 3 8 22 51 18 63 -5 11 -21 32 -28 27 -9 -1 6 4 14 12 16 9 4 11 0
7 -15 -5 -15 -2 -20 11 -18 13 1 19 -7 21 -26 3 -21 -3 -30 -28 -43 -34 -18
-56 -55 -47 -79 9 -23 34 -20 71 11 19 14 37 26 42 26 5 -1 17 3 26 8 10 6 19
5 23 -1 10 -17 45 -12 39 5 -4 8 -1 15 5 15 7 0 24 11 39 25 34 32 39 31 47
-5 4 -16 12 -31 18 -32 7 0 17 -2 23 -2 14 -2 44 -32 44 -45 0 -5 8 -17 17
-27 13 -13 14 -19 5 -22 -6 -2 -12 -15 -12 -29 0 -19 4 -24 16 -19 9 3 22 6
31 6 9 0 13 6 9 15 -3 8 1 20 8 27 7 7 10 20 8 28 -4 12 -3 13 10 3 20 -17 28
-7 28 33 0 18 5 36 10 39 6 3 10 14 10 24 0 10 9 26 20 36 11 10 18 21 15 25
-2 4 5 31 16 61 13 33 20 74 19 104 -1 28 -2 60 -2 73 0 12 -6 22 -14 22 -7 0
-11 6 -8 14 3 8 -4 36 -15 62 -30 67 -28 81 14 88 38 7 48 26 14 26 -15 0 -19
5 -15 18 4 11 -2 27 -15 41 -11 12 -18 29 -15 37 3 8 2 13 -3 10 -5 -3 -12 9
-15 27 -3 17 -13 44 -21 60 -8 15 -21 38 -28 51 -7 14 -32 46 -55 71 -43 48
-49 61 -32 67 5 2 11 17 13 33 2 17 7 36 11 43 9 14 6 15 -97 37 -91 19 -214
73 -266 115 -44 37 -54 38 -39 5 6 -14 15 -25 20 -25 4 0 8 -6 8 -13 0 -9 -15
-14 -46 -16 -37 -1 -45 2 -41 13 5 12 -2 14 -28 12 -19 -1 -32 0 -30 4 2 3 -5
17 -16 30 -14 19 -19 21 -19 9z"/>
<path d="M7359 4722 c-11 -66 -2 -83 29 -54 8 7 18 10 23 7 5 -4 9 -1 9 4 0 6
-7 11 -15 11 -9 0 -15 7 -13 16 2 10 -5 18 -14 19 -10 2 -18 0 -19 -3z"/>
<path d="M7352 4568 c0 -32 5 -55 9 -52 5 3 9 11 9 18 0 7 9 21 20 31 25 23
26 38 1 30 -13 -4 -23 0 -29 12 -8 13 -10 3 -10 -39z"/>
<path d="M7330 4329 c0 -5 5 -7 10 -4 6 3 10 8 10 11 0 2 -4 4 -10 4 -5 0 -10
-5 -10 -11z"/>
<path d="M6279 4302 c-18 -2 -29 -11 -33 -25 -7 -29 -5 -30 37 -12 20 8 50 15
66 15 16 0 32 4 35 9 6 10 -62 18 -105 13z"/>
<path d="M7324 4289 c-3 -6 -1 -16 5 -22 8 -8 11 -5 11 11 0 24 -5 28 -16 11z"/>
<path d="M7316 4199 c-9 -47 -7 -56 9 -35 16 22 20 66 6 66 -5 0 -11 -14 -15
-31z"/>
<path d="M7296 4108 c-4 -18 -11 -53 -16 -78 -4 -25 -13 -63 -20 -85 -6 -22
-15 -57 -21 -78 -5 -21 -18 -48 -29 -60 -22 -23 -25 -44 -10 -67 9 -13 12 -13
24 3 8 10 18 18 23 18 4 0 7 7 5 14 -2 10 3 13 14 8 18 -7 18 -8 -2 70 -4 18
2 31 25 53 26 24 31 37 31 74 0 25 4 61 10 80 7 23 6 36 -1 40 -5 4 -9 13 -7
20 2 7 -2 14 -8 17 -7 2 -15 -11 -18 -29z"/>
<path d="M6490 4030 c0 -5 7 -10 15 -10 8 0 15 5 15 10 0 6 -7 10 -15 10 -8 0
-15 -4 -15 -10z"/>
<path d="M6100 3771 c0 -14 18 -23 31 -15 8 4 7 9 -2 15 -18 11 -29 11 -29 0z"/>
<path d="M7170 3699 c0 -5 -5 -7 -12 -3 -6 4 -8 3 -5 -3 4 -6 0 -23 -7 -39 -8
-16 -16 -36 -18 -44 -2 -8 -16 -26 -31 -41 -28 -26 -44 -79 -24 -79 5 0 4 -7
-3 -15 -6 -8 -10 -20 -8 -26 6 -19 37 18 31 39 -2 10 3 24 11 31 9 8 16 18 16
23 0 5 9 21 20 35 11 14 20 36 20 49 0 18 5 24 23 24 15 0 28 9 35 24 9 21 8
25 -11 30 -31 8 -37 7 -37 -5z"/>
<path d="M6325 3610 c-3 -5 -15 -10 -26 -10 -10 0 -19 -6 -19 -14 0 -8 -5 -16
-11 -18 -11 -4 -2 -38 12 -38 4 0 16 14 26 30 9 17 23 30 30 30 7 0 13 4 13 9
0 15 -18 23 -25 11z"/>
<path d="M5470 3569 c0 -5 5 -7 10 -4 6 3 10 8 10 11 0 2 -4 4 -10 4 -5 0 -10
-5 -10 -11z"/>
<path d="M6190 3540 c-20 -6 -21 -8 -5 -8 11 0 29 3 40 8 25 11 -1 11 -35 0z"/>
<path d="M7023 3428 c-10 -12 -17 -42 -14 -61 0 -4 10 -3 21 3 21 11 26 36 11
58 -6 11 -10 11 -18 0z"/>
<path d="M6960 3257 c0 -9 -10 -12 -32 -10 -30 4 -31 3 -16 -10 14 -11 15 -16
5 -27 -10 -10 -8 -12 6 -7 15 6 17 3 12 -13 -4 -14 -2 -20 8 -20 7 0 14 6 14
13 0 6 4 29 8 50 4 20 4 37 1 37 -3 0 -6 -6 -6 -13z"/>
<path d="M11987 2960 c3 -11 7 -20 9 -20 2 0 4 9 4 20 0 11 -4 20 -9 20 -5 0
-7 -9 -4 -20z"/>
<path d="M11980 2910 c0 -5 5 -10 10 -10 6 0 10 5 10 10 0 6 -4 10 -10 10 -5
0 -10 -4 -10 -10z"/>
<path d="M11920 2870 c0 -5 5 -10 11 -10 5 0 7 5 4 10 -3 6 -8 10 -11 10 -2 0
-4 -4 -4 -10z"/>
<path d="M11970 2850 c0 -5 7 -10 15 -10 8 0 15 5 15 10 0 6 -7 10 -15 10 -8
0 -15 -4 -15 -10z"/>
<path d="M11940 2830 c0 -5 5 -10 10 -10 6 0 10 5 10 10 0 6 -4 10 -10 10 -5
0 -10 -4 -10 -10z"/>
<path d="M11965 2780 c3 -5 8 -10 11 -10 2 0 4 5 4 10 0 6 -5 10 -11 10 -5 0
-7 -4 -4 -10z"/>
<path d="M6185 2741 c-3 -5 -1 -12 5 -16 5 -3 10 1 10 9 0 18 -6 21 -15 7z"/>
<path d="M11940 2664 c0 -8 5 -12 10 -9 6 4 8 11 5 16 -9 14 -15 11 -15 -7z"/>
<path d="M11992 2645 c0 -16 2 -22 5 -12 2 9 2 23 0 30 -3 6 -5 -1 -5 -18z"/>
<path d="M11922 2630 c0 -14 2 -19 5 -12 2 6 2 18 0 25 -3 6 -5 1 -5 -13z"/>
<path d="M11940 2570 c-8 -5 -11 -12 -7 -16 4 -4 13 -2 19 4 15 15 7 24 -12
12z"/>
<path d="M11621 2504 c0 -11 3 -14 6 -6 3 7 2 16 -1 19 -3 4 -6 -2 -5 -13z"/>
<path d="M11780 2450 c0 -5 9 -10 21 -10 11 0 17 5 14 10 -3 6 -13 10 -21 10
-8 0 -14 -4 -14 -10z"/>
<path d="M11376 2421 c-4 -7 -5 -15 -2 -18 9 -9 19 4 14 18 -4 11 -6 11 -12 0z"/>
<path d="M11460 2385 c0 -8 5 -15 10 -15 6 0 10 7 10 15 0 8 -4 15 -10 15 -5
0 -10 -7 -10 -15z"/>
<path d="M11736 2393 c-9 -10 -7 -53 3 -53 11 0 21 49 11 55 -4 2 -10 2 -14
-2z"/>
<path d="M11660 2370 c0 -5 7 -10 15 -10 8 0 15 5 15 10 0 6 -7 10 -15 10 -8
0 -15 -4 -15 -10z"/>
<path d="M11280 2366 c0 -2 7 -9 15 -16 9 -7 15 -8 15 -2 0 5 -7 12 -15 16 -8
3 -15 4 -15 2z"/>
<path d="M11327 2340 c-3 -11 -1 -20 4 -20 5 0 9 9 9 20 0 11 -2 20 -4 20 -2
0 -6 -9 -9 -20z"/>
<path d="M11412 2349 c5 -16 68 -52 76 -44 9 8 -31 35 -45 30 -7 -2 -12 1 -10
7 1 6 -4 13 -12 16 -8 3 -12 -1 -9 -9z"/>
<path d="M11650 2336 c0 -2 7 -7 16 -10 8 -3 12 -2 9 4 -6 10 -25 14 -25 6z"/>
<path d="M11342 2298 c-7 -7 -22 -13 -34 -13 -12 0 -23 -6 -26 -14 -3 -9 0
-11 7 -7 7 4 18 3 25 -3 20 -17 46 -2 46 25 0 28 -2 28 -18 12z"/>
<path d="M11541 2284 c0 -11 3 -14 6 -6 3 7 2 16 -1 19 -3 4 -6 -2 -5 -13z"/>
<path d="M11590 2280 c0 -19 3 -21 12 -12 9 9 9 15 0 24 -9 9 -12 7 -12 -12z"/>
<path d="M11378 2223 c7 -3 16 -2 19 1 4 3 -2 6 -13 5 -11 0 -14 -3 -6 -6z"/>
<path d="M11511 2214 c0 -11 3 -14 6 -6 3 7 2 16 -1 19 -3 4 -6 -2 -5 -13z"/>
<path d="M11305 2200 c10 -11 22 -17 28 -13 6 4 3 12 -8 20 -28 20 -41 16 -20
-7z"/>
<path d="M11490 2180 c0 -5 5 -10 10 -10 6 0 10 5 10 10 0 6 -4 10 -10 10 -5
0 -10 -4 -10 -10z"/>
<path d="M11135 2160 c-3 -5 1 -10 10 -10 9 0 13 5 10 10 -3 6 -8 10 -10 10
-2 0 -7 -4 -10 -10z"/>
<path d="M11357 2156 c-4 -10 -1 -13 8 -9 8 3 12 9 9 14 -7 12 -11 11 -17 -5z"/>
<path d="M11077 2132 c-10 -10 -14 -22 -10 -25 3 -4 13 2 21 14 18 26 10 35
-11 11z"/>
<path d="M10740 2110 c0 -5 5 -10 10 -10 6 0 10 5 10 10 0 6 -4 10 -10 10 -5
0 -10 -4 -10 -10z"/>
<path d="M10800 2091 c0 -14 5 -19 15 -14 17 6 15 25 -3 31 -7 2 -12 -5 -12
-17z"/>
<path d="M10855 2100 c-3 -5 -2 -10 4 -10 5 0 11 -10 13 -22 2 -12 8 -23 14
-25 7 -2 10 6 7 21 -6 31 -28 52 -38 36z"/>
<path d="M10927 2089 c12 -7 24 -19 27 -28 3 -9 4 -5 3 9 -2 19 -8 26 -27 27
-25 3 -25 3 -3 -8z"/>
<path d="M11121 2074 c0 -11 3 -14 6 -6 3 7 2 16 -1 19 -3 4 -6 -2 -5 -13z"/>
<path d="M10370 2060 c0 -5 5 -10 11 -10 5 0 7 5 4 10 -3 6 -8 10 -11 10 -2 0
-4 -4 -4 -10z"/>
<path d="M10560 2056 c0 -8 5 -18 10 -21 6 -3 10 3 10 14 0 12 -4 21 -10 21
-5 0 -10 -6 -10 -14z"/>
<path d="M10520 2031 c0 -6 5 -13 10 -16 6 -3 10 1 10 9 0 9 -4 16 -10 16 -5
0 -10 -4 -10 -9z"/>
<path d="M10612 2029 c2 -7 10 -15 17 -17 8 -3 12 1 9 9 -2 7 -10 15 -17 17
-8 3 -12 -1 -9 -9z"/>
<path d="M10970 2030 c0 -5 5 -10 11 -10 5 0 7 5 4 10 -3 6 -8 10 -11 10 -2 0
-4 -4 -4 -10z"/>
<path d="M11135 2030 c-3 -5 -1 -10 4 -10 6 0 11 5 11 10 0 6 -2 10 -4 10 -3
0 -8 -4 -11 -10z"/>
<path d="M11180 2030 c0 -5 5 -10 10 -10 6 0 10 5 10 10 0 6 -4 10 -10 10 -5
0 -10 -4 -10 -10z"/>
<path d="M6060 2010 c0 -5 5 -10 11 -10 5 0 7 5 4 10 -3 6 -8 10 -11 10 -2 0
-4 -4 -4 -10z"/>
<path d="M11060 2010 c0 -5 7 -10 16 -10 8 0 12 5 9 10 -3 6 -10 10 -16 10 -5
0 -9 -4 -9 -10z"/>
<path d="M10402 1998 c6 -18 25 -20 31 -3 5 10 0 15 -14 15 -12 0 -19 -5 -17
-12z"/>
<path d="M10863 1990 c3 -11 1 -23 -4 -26 -14 -8 -10 -24 6 -24 9 0 15 9 15
25 0 17 6 25 18 26 14 0 14 2 -3 9 -31 13 -38 11 -32 -10z"/>
<path d="M10350 1990 c0 -5 5 -10 10 -10 6 0 10 5 10 10 0 6 -4 10 -10 10 -5
0 -10 -4 -10 -10z"/>
<path d="M10460 1980 c0 -5 7 -10 16 -10 8 0 13 -4 10 -9 -3 -4 6 -6 20 -3
l25 4 -27 14 c-31 17 -44 18 -44 4z"/>
<path d="M10925 1980 c-4 -6 3 -10 14 -10 25 0 27 6 6 13 -8 4 -17 2 -20 -3z"/>
<path d="M10419 1953 c-5 -40 -3 -103 3 -103 5 0 8 25 8 55 0 30 -2 55 -5 55
-3 0 -5 -3 -6 -7z"/>
<path d="M10303 1893 c-7 -2 -13 -13 -13 -23 0 -10 -6 -21 -12 -23 -7 -3 -3
-6 8 -6 17 -1 23 6 26 29 3 17 4 30 4 29 -1 0 -7 -3 -13 -6z"/>
<path d="M10240 1826 c0 -9 5 -16 10 -16 6 0 10 4 10 9 0 6 -4 13 -10 16 -5 3
-10 -1 -10 -9z"/>
<path d="M10139 1684 c-6 -7 -8 -18 -5 -23 11 -17 -17 -51 -41 -51 -24 0 -54
-50 -50 -85 1 -14 -5 -21 -20 -23 -24 -4 -32 13 -10 21 7 3 4 6 -6 6 -14 1
-18 -5 -15 -21 2 -13 6 -22 11 -20 4 1 18 2 32 2 20 0 25 6 31 35 3 19 10 32
15 29 5 -3 9 2 9 10 0 9 7 16 15 16 8 0 15 -4 15 -10 0 -5 11 -10 25 -10 28 0
44 25 26 43 -8 8 -11 6 -11 -7 0 -11 -6 -16 -17 -14 -21 4 -29 28 -10 28 9 0
19 10 22 23 4 12 16 29 27 38 21 16 20 16 -6 21 -15 3 -30 0 -37 -8z"/>
<path d="M10460 1640 c0 -5 5 -10 10 -10 6 0 10 5 10 10 0 6 -4 10 -10 10 -5
0 -10 -4 -10 -10z"/>
<path d="M9970 1590 c0 -5 5 -10 10 -10 6 0 10 5 10 10 0 6 -4 10 -10 10 -5 0
-10 -4 -10 -10z"/>
<path d="M9440 1569 c0 -5 5 -9 11 -9 6 0 9 -6 6 -14 -3 -8 1 -17 9 -20 9 -3
13 -10 9 -15 -9 -16 13 -23 35 -11 29 15 25 32 -6 24 -22 -6 -25 -4 -20 12 4
14 -1 22 -19 31 -14 6 -25 7 -25 2z"/>
<path d="M9578 1573 c7 -3 16 -2 19 1 4 3 -2 6 -13 5 -11 0 -14 -3 -6 -6z"/>
<path d="M9870 1570 c0 -5 5 -10 11 -10 5 0 7 5 4 10 -3 6 -8 10 -11 10 -2 0
-4 -4 -4 -10z"/>
<path d="M10000 1560 c0 -19 3 -21 12 -12 9 9 9 15 0 24 -9 9 -12 7 -12 -12z"/>
<path d="M8900 1559 c0 -5 5 -7 10 -4 6 3 10 8 10 11 0 2 -4 4 -10 4 -5 0 -10
-5 -10 -11z"/>
<path d="M10292 1558 c6 -18 25 -20 31 -3 5 10 0 15 -14 15 -12 0 -19 -5 -17
-12z"/>
<path d="M9785 1550 c-3 -5 1 -10 9 -10 9 0 16 5 16 10 0 6 -4 10 -9 10 -6 0
-13 -4 -16 -10z"/>
<path d="M9551 1524 c0 -11 3 -14 6 -6 3 7 2 16 -1 19 -3 4 -6 -2 -5 -13z"/>
<path d="M9866 1525 c4 -8 10 -15 14 -15 4 0 10 7 14 15 4 10 -1 15 -14 15
-13 0 -18 -5 -14 -15z"/>
<path d="M9950 1530 c-8 -5 -10 -10 -5 -10 6 0 17 5 25 10 8 5 11 10 5 10 -5
0 -17 -5 -25 -10z"/>
<path d="M9916 1513 c-6 -14 -5 -15 5 -6 7 7 10 15 7 18 -3 3 -9 -2 -12 -12z"/>
<path d="M9200 1505 c0 -8 4 -15 10 -15 5 0 7 7 4 15 -4 8 -8 15 -10 15 -2 0
-4 -7 -4 -15z"/>
<path d="M9817 1513 c-12 -11 -8 -23 8 -23 8 0 15 7 15 15 0 16 -12 20 -23 8z"/>
<path d="M9596 1497 c3 -10 9 -15 12 -12 3 3 0 11 -7 18 -10 9 -11 8 -5 -6z"/>
<path d="M9420 1490 c0 -5 6 -10 14 -10 8 0 18 5 21 10 3 6 -3 10 -14 10 -12
0 -21 -4 -21 -10z"/>
<path d="M10028 1453 c7 -3 16 -2 19 1 4 3 -2 6 -13 5 -11 0 -14 -3 -6 -6z"/>
<path d="M9205 1429 c-10 -14 -1 -21 19 -13 9 3 13 10 10 15 -7 12 -21 11 -29
-2z"/>
<path d="M9485 1430 c-3 -5 3 -10 14 -10 12 0 21 5 21 10 0 6 -6 10 -14 10 -8
0 -18 -4 -21 -10z"/>
<path d="M9120 1426 c0 -2 7 -6 15 -10 8 -3 15 -1 15 4 0 6 -7 10 -15 10 -8 0
-15 -2 -15 -4z"/>
<path d="M8950 1411 c0 -10 19 -25 25 -20 1 2 -3 10 -11 17 -8 7 -14 8 -14 3z"/>
<path d="M9227 1393 c-11 -10 24 -43 46 -43 13 0 17 5 13 16 -3 9 -6 17 -6 20
0 2 -7 1 -16 -3 -9 -3 -19 -1 -23 6 -4 6 -10 8 -14 4z"/>
<path d="M9475 1390 c3 -5 15 -10 26 -10 10 0 19 5 19 10 0 6 -12 10 -26 10
-14 0 -23 -4 -19 -10z"/>
<path d="M9055 1370 c3 -5 8 -10 11 -10 2 0 4 5 4 10 0 6 -5 10 -11 10 -5 0
-7 -4 -4 -10z"/>
<path d="M9312 1356 c-1 -17 3 -26 13 -26 18 0 19 11 2 34 -11 16 -13 15 -15
-8z"/>
<path d="M9025 1360 c-3 -5 -1 -10 4 -10 6 0 11 5 11 10 0 6 -2 10 -4 10 -3 0
-8 -4 -11 -10z"/>
<path d="M8953 1345 c-3 -9 -3 -19 1 -22 3 -4 6 1 6 10 0 8 6 18 13 20 9 4 9
6 -1 6 -7 1 -15 -6 -19 -14z"/>
<path d="M9093 1339 c-41 -12 -47 -49 -8 -49 18 0 26 7 31 26 4 16 12 23 20
20 8 -3 14 -1 14 4 0 12 -14 11 -57 -1z"/>
<path d="M9000 1330 c0 -5 7 -10 16 -10 8 0 12 5 9 10 -3 6 -10 10 -16 10 -5
0 -9 -4 -9 -10z"/>
<path d="M9220 1306 c0 -9 5 -16 10 -16 6 0 10 4 10 9 0 6 -4 13 -10 16 -5 3
-10 -1 -10 -9z"/>
<path d="M9177 1274 c-4 -4 -7 -14 -7 -23 0 -11 3 -12 11 -4 6 6 10 16 7 23
-2 6 -7 8 -11 4z"/>
<path d="M9200 1235 c0 -8 7 -15 15 -15 8 0 15 7 15 15 0 8 -7 15 -15 15 -8 0
-15 -7 -15 -15z"/>
</g>
</svg>
